<svg width="127" height="126" viewBox="0 0 127 126" fill="none" xmlns="http://www.w3.org/2000/svg">
<path d="M63.5374 125.896C28.4797 125.896 0 97.4121 0 62.3498C0 61.8264 0 61.3779 0 60.9293V60.3312L0.0747501 59.5836C2.16775 26.166 30.0494 0 63.4626 0C98.5203 0 127 28.4835 127 63.5459C127 63.7702 127 63.9945 127 64.144V64.5925V65.2654L126.925 66.013C125.057 99.5802 97.1748 125.896 63.5374 125.896Z" fill="#FF83C2"/>
<g filter="url(#filter0_i_3276_113)">
<path d="M109.485 65.1623C108.11 89.489 87.9951 108.658 63.4105 108.658C37.9663 108.658 17.3359 88.0276 17.3359 62.5835C17.3359 62.0677 17.3359 61.5519 17.3359 61.1222C18.7973 37.0533 38.8259 17.8843 63.3245 17.8843C88.7687 17.8843 109.399 38.5147 109.399 63.9588C109.485 64.3886 109.485 64.7325 109.485 65.1623Z" fill="url(#paint0_linear_3276_113)"/>
</g>
<defs>
<filter id="filter0_i_3276_113" x="17.3359" y="17.8843" width="92.1484" height="94.7737" filterUnits="userSpaceOnUse" color-interpolation-filters="sRGB">
<feFlood flood-opacity="0" result="BackgroundImageFix"/>
<feBlend mode="normal" in="SourceGraphic" in2="BackgroundImageFix" result="shape"/>
<feColorMatrix in="SourceAlpha" type="matrix" values="0 0 0 0 0 0 0 0 0 0 0 0 0 0 0 0 0 0 127 0" result="hardAlpha"/>
<feOffset dy="4"/>
<feGaussianBlur stdDeviation="4.5"/>
<feComposite in2="hardAlpha" operator="arithmetic" k2="-1" k3="1"/>
<feColorMatrix type="matrix" values="0 0 0 0 0 0 0 0 0 0 0 0 0 0 0 0 0 0 0.25 0"/>
<feBlend mode="normal" in2="shape" result="effect1_innerShadow_3276_113"/>
</filter>
<linearGradient id="paint0_linear_3276_113" x1="63.4105" y1="17.8843" x2="83.3768" y2="118.165" gradientUnits="userSpaceOnUse">
<stop stop-color="#EB2188"/>
<stop offset="1" stop-color="#85134D"/>
</linearGradient>
</defs>
</svg>
