<svg width="97" height="96" viewBox="0 0 97 96" fill="none" xmlns="http://www.w3.org/2000/svg">
<path d="M48.8895 95.1404C22.427 95.1404 0.929688 73.6431 0.929688 47.1806C0.929688 46.7856 0.929688 46.4471 0.929688 46.1085V45.6571L0.986111 45.0929C2.56596 19.8717 23.6118 0.123535 48.8331 0.123535C75.2956 0.123535 96.7929 21.6208 96.7929 48.0833C96.7929 48.2526 96.7929 48.4219 96.7929 48.5347V48.8733V49.3811L96.7364 49.9453C95.3259 75.2794 74.28 95.1404 48.8895 95.1404Z" fill="url(#paint0_linear_3276_109)"/>
<path d="M79.0717 48.8731C78.1689 64.8409 64.9659 77.4233 48.8288 77.4233C32.1275 77.4233 18.5859 63.8817 18.5859 47.1804C18.5859 46.8419 18.5859 46.5034 18.5859 46.2212C19.5451 30.4227 32.6918 17.8403 48.7724 17.8403C65.4737 17.8403 79.0153 31.3819 79.0153 48.0832C79.0717 48.3653 79.0717 48.591 79.0717 48.8731Z" fill="url(#paint1_linear_3276_109)"/>
<defs>
<linearGradient id="paint0_linear_3276_109" x1="0.925964" y1="47.6189" x2="96.7977" y2="47.6189" gradientUnits="userSpaceOnUse">
<stop stop-color="#E6E6E6"/>
<stop offset="1" stop-color="white"/>
</linearGradient>
<linearGradient id="paint1_linear_3276_109" x1="18.6162" y1="47.6188" x2="79.099" y2="47.6188" gradientUnits="userSpaceOnUse">
<stop stop-color="white"/>
<stop offset="1" stop-color="#E6E6E6"/>
</linearGradient>
</defs>
</svg>
