<svg width="724" height="419" viewBox="0 0 724 419" fill="none" xmlns="http://www.w3.org/2000/svg">
<path d="M164.235 252.155C101.278 328.196 28.5131 315.75 0 300.022V418.323L724.004 414.22V393.705C598.09 406.014 520.079 202.92 479.704 132.487C447.404 76.1399 390.971 62.5092 366.792 62.7372C313.165 62.737 276.658 100.666 259.355 121.546C250.288 132.487 227.192 176.114 164.235 252.155Z" fill="url(#paint0_linear_2254_1079)"/>
<path d="M61.3902 199.86C43.0585 169.48 16.4597 124.257 0 107.802V418.324L724.004 414.661V365.964C683.967 348.353 636.708 192.345 595.885 121.811C579.946 94.271 543.837 33.3551 487.785 29.0858C431.733 24.8164 385.563 60.5948 363.003 121.811C350.547 155.61 308.953 237.217 242.224 293.252C158.814 363.296 95.2316 255.942 61.3902 199.86Z" fill="url(#paint1_linear_2254_1079)" fill-opacity="0.7"/>
<path d="M199.005 326.647C199.005 328.67 197.365 330.31 195.342 330.31C193.32 330.31 191.68 328.67 191.68 326.647C191.68 324.624 193.32 322.984 195.342 322.984C197.365 322.984 199.005 324.624 199.005 326.647Z" fill="#0B0D54"/>
<path d="M218.866 345.531H216.903V341.224C216.903 340.628 216.786 340.184 216.551 339.891C216.327 339.598 216.014 339.451 215.614 339.451C215.379 339.451 215.13 339.519 214.867 339.656C214.603 339.793 214.363 339.983 214.149 340.228C213.944 340.462 213.792 340.735 213.694 341.048V345.531H211.731V334.836H213.694V339.275C213.978 338.787 214.364 338.406 214.852 338.132C215.34 337.859 215.873 337.722 216.449 337.722C216.947 337.722 217.352 337.81 217.665 337.986C217.977 338.152 218.222 338.381 218.397 338.675C218.573 338.958 218.695 339.28 218.764 339.641C218.832 339.993 218.866 340.359 218.866 340.74V345.531Z" fill="#383838"/>
<path d="M205.449 345.576C204.941 345.576 204.472 345.478 204.043 345.283C203.623 345.077 203.256 344.794 202.944 344.433C202.641 344.071 202.407 343.656 202.241 343.187C202.074 342.719 201.991 342.221 201.991 341.693C201.991 341.136 202.079 340.619 202.255 340.14C202.431 339.661 202.675 339.241 202.988 338.88C203.31 338.509 203.686 338.226 204.116 338.03C204.555 337.825 205.039 337.723 205.566 337.723C206.162 337.723 206.685 337.859 207.134 338.133C207.583 338.397 207.954 338.753 208.247 339.202V337.855H209.962V345.165C209.962 345.927 209.776 346.577 209.405 347.114C209.043 347.661 208.54 348.076 207.896 348.359C207.251 348.652 206.519 348.799 205.698 348.799C204.868 348.799 204.165 348.657 203.588 348.374C203.012 348.1 202.519 347.71 202.109 347.202L203.178 346.162C203.471 346.523 203.837 346.806 204.277 347.011C204.726 347.217 205.2 347.319 205.698 347.319C206.118 347.319 206.499 347.241 206.841 347.085C207.193 346.938 207.471 346.704 207.676 346.381C207.891 346.069 207.998 345.664 207.998 345.165V344.198C207.744 344.638 207.383 344.98 206.914 345.224C206.455 345.458 205.967 345.576 205.449 345.576ZM206.108 344.008C206.323 344.008 206.528 343.974 206.724 343.905C206.919 343.837 207.1 343.744 207.266 343.627C207.432 343.51 207.578 343.373 207.705 343.217C207.832 343.051 207.93 342.885 207.998 342.719V340.887C207.881 340.584 207.715 340.321 207.5 340.096C207.295 339.871 207.061 339.701 206.797 339.583C206.543 339.456 206.274 339.393 205.991 339.393C205.688 339.393 205.415 339.456 205.171 339.583C204.927 339.71 204.717 339.891 204.541 340.125C204.365 340.35 204.228 340.604 204.131 340.887C204.043 341.161 203.999 341.449 203.999 341.752C203.999 342.064 204.052 342.357 204.16 342.631C204.267 342.904 204.414 343.144 204.599 343.349C204.795 343.554 205.019 343.715 205.273 343.832C205.537 343.949 205.815 344.008 206.108 344.008Z" fill="#383838"/>
<path d="M193.316 342.66V337.854H195.279V342.235C195.279 342.821 195.386 343.266 195.601 343.568C195.816 343.861 196.133 344.008 196.553 344.008C196.807 344.008 197.056 343.959 197.301 343.861C197.555 343.754 197.784 343.598 197.989 343.393C198.204 343.187 198.385 342.929 198.531 342.616V337.854H200.495V343.334C200.495 343.539 200.529 343.686 200.597 343.774C200.675 343.861 200.797 343.915 200.963 343.935V345.532C200.768 345.561 200.602 345.58 200.465 345.59C200.338 345.61 200.221 345.62 200.114 345.62C199.762 345.62 199.474 345.541 199.249 345.385C199.034 345.219 198.907 344.994 198.868 344.711L198.824 344.096C198.482 344.613 198.043 345.009 197.506 345.283C196.969 345.546 196.378 345.678 195.733 345.678C194.942 345.678 194.341 345.424 193.931 344.916C193.521 344.399 193.316 343.647 193.316 342.66Z" fill="#383838"/>
<path d="M188.049 345.678C187.424 345.678 186.863 345.576 186.365 345.37C185.866 345.156 185.442 344.863 185.09 344.491C184.748 344.12 184.484 343.695 184.299 343.217C184.113 342.738 184.02 342.235 184.02 341.708C184.02 341.171 184.113 340.663 184.299 340.184C184.484 339.705 184.748 339.281 185.09 338.909C185.442 338.538 185.866 338.25 186.365 338.045C186.863 337.83 187.424 337.723 188.049 337.723C188.675 337.723 189.231 337.83 189.72 338.045C190.218 338.25 190.643 338.538 190.994 338.909C191.346 339.281 191.61 339.705 191.785 340.184C191.971 340.663 192.064 341.171 192.064 341.708C192.064 342.235 191.971 342.738 191.785 343.217C191.61 343.695 191.346 344.12 190.994 344.491C190.652 344.863 190.232 345.156 189.734 345.37C189.236 345.576 188.675 345.678 188.049 345.678ZM186.042 341.708C186.042 342.157 186.13 342.557 186.306 342.909C186.482 343.251 186.721 343.52 187.024 343.715C187.327 343.91 187.668 344.008 188.049 344.008C188.421 344.008 188.758 343.91 189.06 343.715C189.363 343.51 189.602 343.236 189.778 342.894C189.964 342.543 190.057 342.142 190.057 341.693C190.057 341.254 189.964 340.858 189.778 340.506C189.602 340.155 189.363 339.881 189.06 339.686C188.758 339.491 188.421 339.393 188.049 339.393C187.668 339.393 187.327 339.495 187.024 339.701C186.721 339.896 186.482 340.169 186.306 340.521C186.13 340.863 186.042 341.258 186.042 341.708Z" fill="#383838"/>
<path d="M183.509 339.554C182.913 339.554 182.381 339.671 181.912 339.906C181.443 340.13 181.106 340.458 180.901 340.887V345.532H178.938V337.855H180.74V339.495C181.014 338.968 181.36 338.553 181.78 338.25C182.2 337.947 182.645 337.781 183.114 337.752C183.221 337.752 183.304 337.752 183.363 337.752C183.421 337.752 183.47 337.757 183.509 337.767V339.554Z" fill="#383838"/>
<path d="M178.567 336.902H175.241V345.531H173.234V336.902H169.908V335.129H178.567V336.902Z" fill="#383838"/>
<path d="M164.326 237.663C164.326 239.686 162.686 241.326 160.663 241.326C158.64 241.326 157 239.686 157 237.663C157 235.64 158.64 234 160.663 234C162.686 234 164.326 235.64 164.326 237.663Z" fill="#0B0D54"/>
<path d="M147.229 247.305H149.192V255.539C149.192 255.89 149.251 256.129 149.368 256.256C149.485 256.374 149.646 256.432 149.852 256.432C150.008 256.432 150.169 256.413 150.335 256.374C150.501 256.335 150.648 256.286 150.775 256.227L151.038 257.722C150.775 257.849 150.467 257.946 150.115 258.015C149.764 258.083 149.446 258.117 149.163 258.117C148.548 258.117 148.069 257.956 147.727 257.634C147.395 257.302 147.229 256.833 147.229 256.227V247.305Z" fill="#383838"/>
<path d="M142.579 247.305H144.542V255.539C144.542 255.89 144.601 256.129 144.718 256.256C144.835 256.374 144.997 256.432 145.202 256.432C145.358 256.432 145.519 256.413 145.685 256.374C145.851 256.335 145.998 256.286 146.125 256.227L146.388 257.722C146.125 257.849 145.817 257.946 145.465 258.015C145.114 258.083 144.796 258.117 144.513 258.117C143.898 258.117 143.419 257.956 143.077 257.634C142.745 257.302 142.579 256.833 142.579 256.227V247.305Z" fill="#383838"/>
<path d="M133.464 255.129V250.323H135.427V254.704C135.427 255.29 135.534 255.734 135.749 256.037C135.964 256.33 136.282 256.477 136.702 256.477C136.956 256.477 137.205 256.428 137.449 256.33C137.703 256.223 137.932 256.066 138.137 255.861C138.352 255.656 138.533 255.397 138.68 255.085V250.323H140.643V255.803C140.643 256.008 140.677 256.154 140.745 256.242C140.823 256.33 140.946 256.384 141.112 256.403V258C140.916 258.03 140.75 258.049 140.613 258.059C140.486 258.079 140.369 258.088 140.262 258.088C139.91 258.088 139.622 258.01 139.397 257.854C139.183 257.688 139.056 257.463 139.016 257.18L138.973 256.565C138.631 257.082 138.191 257.478 137.654 257.751C137.117 258.015 136.526 258.147 135.881 258.147C135.09 258.147 134.489 257.893 134.079 257.385C133.669 256.867 133.464 256.115 133.464 255.129Z" fill="#383838"/>
<path d="M128.617 258.146C128.031 258.146 127.509 258.015 127.05 257.751C126.591 257.487 126.229 257.126 125.966 256.667V258H124.251V247.305H126.215V251.671C126.488 251.212 126.845 250.85 127.284 250.587C127.733 250.323 128.256 250.191 128.852 250.191C129.35 250.191 129.804 250.298 130.214 250.513C130.625 250.718 130.976 251.007 131.269 251.378C131.572 251.749 131.801 252.174 131.958 252.652C132.124 253.131 132.207 253.644 132.207 254.191C132.207 254.738 132.114 255.25 131.928 255.729C131.753 256.208 131.504 256.632 131.181 257.004C130.859 257.365 130.478 257.648 130.038 257.853C129.609 258.049 129.135 258.146 128.617 258.146ZM128.075 256.476C128.388 256.476 128.671 256.418 128.925 256.3C129.189 256.173 129.413 256.007 129.599 255.802C129.794 255.597 129.941 255.358 130.038 255.084C130.146 254.801 130.2 254.508 130.2 254.205C130.2 253.785 130.112 253.4 129.936 253.048C129.77 252.686 129.535 252.398 129.233 252.183C128.94 251.969 128.593 251.861 128.192 251.861C127.909 251.861 127.636 251.93 127.372 252.066C127.118 252.193 126.889 252.369 126.683 252.594C126.488 252.818 126.332 253.072 126.215 253.356V255.187C126.273 255.382 126.366 255.558 126.493 255.714C126.63 255.871 126.786 256.007 126.962 256.125C127.138 256.232 127.318 256.32 127.504 256.388C127.699 256.447 127.89 256.476 128.075 256.476Z" fill="#383838"/>
<path d="M144 242.495C144.175 242.534 144.337 242.568 144.483 242.597C144.639 242.627 144.771 242.641 144.879 242.641C145.064 242.641 145.216 242.592 145.333 242.495C145.46 242.407 145.582 242.241 145.699 241.997C145.816 241.762 145.938 241.43 146.065 241L143.033 233.323H145.069L147.135 238.993L148.952 233.323H150.827L147.604 242.524C147.487 242.866 147.306 243.174 147.062 243.447C146.827 243.73 146.529 243.95 146.168 244.106C145.816 244.272 145.421 244.355 144.981 244.355C144.825 244.355 144.669 244.341 144.512 244.311C144.356 244.292 144.185 244.253 144 244.194V242.495Z" fill="#383838"/>
<path d="M139.56 230.305H141.523V238.539C141.523 238.89 141.582 239.129 141.699 239.256C141.816 239.374 141.978 239.432 142.183 239.432C142.339 239.432 142.5 239.413 142.666 239.374C142.832 239.335 142.979 239.286 143.106 239.227L143.369 240.722C143.106 240.849 142.798 240.946 142.446 241.015C142.095 241.083 141.777 241.117 141.494 241.117C140.879 241.117 140.4 240.956 140.058 240.634C139.726 240.302 139.56 239.833 139.56 239.227V230.305Z" fill="#383838"/>
<path d="M138.48 235.023C137.884 235.023 137.352 235.14 136.883 235.374C136.414 235.599 136.077 235.926 135.872 236.356V241H133.909V233.323H135.711V234.964C135.985 234.437 136.331 234.022 136.751 233.719C137.171 233.416 137.616 233.25 138.085 233.221C138.192 233.221 138.275 233.221 138.334 233.221C138.392 233.221 138.441 233.226 138.48 233.235V235.023Z" fill="#383838"/>
<path d="M124.969 238.729C124.969 238.231 125.105 237.797 125.379 237.426C125.662 237.045 126.053 236.752 126.551 236.546C127.049 236.341 127.621 236.239 128.265 236.239C128.587 236.239 128.915 236.263 129.247 236.312C129.579 236.361 129.867 236.439 130.111 236.546V236.136C130.111 235.648 129.965 235.272 129.672 235.008C129.388 234.744 128.964 234.613 128.397 234.613C127.977 234.613 127.577 234.686 127.196 234.832C126.815 234.979 126.414 235.194 125.994 235.477L125.364 234.188C125.872 233.856 126.39 233.607 126.917 233.44C127.454 233.274 128.016 233.191 128.602 233.191C129.696 233.191 130.546 233.465 131.151 234.012C131.767 234.559 132.074 235.34 132.074 236.356V238.803C132.074 239.008 132.109 239.154 132.177 239.242C132.255 239.33 132.377 239.384 132.543 239.403V241C132.367 241.03 132.206 241.054 132.06 241.074C131.923 241.093 131.806 241.103 131.708 241.103C131.317 241.103 131.02 241.015 130.814 240.839C130.619 240.663 130.497 240.449 130.448 240.195L130.404 239.799C130.072 240.229 129.657 240.561 129.159 240.795C128.661 241.03 128.153 241.147 127.635 241.147C127.127 241.147 126.668 241.044 126.258 240.839C125.858 240.624 125.54 240.336 125.306 239.975C125.081 239.604 124.969 239.189 124.969 238.729ZM129.745 239.125C129.852 239.008 129.94 238.891 130.009 238.773C130.077 238.656 130.111 238.549 130.111 238.451V237.675C129.877 237.577 129.623 237.504 129.349 237.455C129.076 237.396 128.817 237.367 128.573 237.367C128.065 237.367 127.645 237.479 127.313 237.704C126.991 237.919 126.829 238.207 126.829 238.568C126.829 238.764 126.883 238.949 126.991 239.125C127.098 239.301 127.254 239.443 127.459 239.55C127.664 239.657 127.909 239.711 128.192 239.711C128.485 239.711 128.773 239.657 129.056 239.55C129.34 239.433 129.569 239.291 129.745 239.125Z" fill="#383838"/>
<path d="M124.11 239.227V241H116.887V230.598H123.978V232.37H118.909V234.876H123.29V236.517H118.909V239.227H124.11Z" fill="#383838"/>
<path d="M216.326 161.663C216.326 163.686 214.686 165.326 212.663 165.326C210.64 165.326 209 163.686 209 161.663C209 159.64 210.64 158 212.663 158C214.686 158 216.326 159.64 216.326 161.663Z" fill="#0B0D54"/>
<path d="M200.229 171.305H202.192V179.539C202.192 179.89 202.251 180.129 202.368 180.256C202.485 180.374 202.646 180.432 202.852 180.432C203.008 180.432 203.169 180.413 203.335 180.374C203.501 180.335 203.648 180.286 203.775 180.227L204.038 181.722C203.775 181.849 203.467 181.946 203.115 182.015C202.764 182.083 202.446 182.117 202.163 182.117C201.548 182.117 201.069 181.956 200.727 181.634C200.395 181.302 200.229 180.833 200.229 180.227V171.305Z" fill="#383838"/>
<path d="M195.579 171.305H197.542V179.539C197.542 179.89 197.601 180.129 197.718 180.256C197.835 180.374 197.997 180.432 198.202 180.432C198.358 180.432 198.519 180.413 198.685 180.374C198.851 180.335 198.998 180.286 199.125 180.227L199.388 181.722C199.125 181.849 198.817 181.946 198.465 182.015C198.114 182.083 197.796 182.117 197.513 182.117C196.898 182.117 196.419 181.956 196.077 181.634C195.745 181.302 195.579 180.833 195.579 180.227V171.305Z" fill="#383838"/>
<path d="M186.464 179.129V174.323H188.427V178.704C188.427 179.29 188.534 179.734 188.749 180.037C188.964 180.33 189.282 180.477 189.702 180.477C189.956 180.477 190.205 180.428 190.449 180.33C190.703 180.223 190.932 180.066 191.137 179.861C191.352 179.656 191.533 179.397 191.68 179.085V174.323H193.643V179.803C193.643 180.008 193.677 180.154 193.745 180.242C193.823 180.33 193.946 180.384 194.112 180.403V182C193.916 182.03 193.75 182.049 193.613 182.059C193.486 182.079 193.369 182.088 193.262 182.088C192.91 182.088 192.622 182.01 192.397 181.854C192.183 181.688 192.056 181.463 192.016 181.18L191.973 180.565C191.631 181.082 191.191 181.478 190.654 181.751C190.117 182.015 189.526 182.147 188.881 182.147C188.09 182.147 187.489 181.893 187.079 181.385C186.669 180.867 186.464 180.115 186.464 179.129Z" fill="#383838"/>
<path d="M181.617 182.146C181.031 182.146 180.509 182.015 180.05 181.751C179.591 181.487 179.229 181.126 178.966 180.667V182H177.251V171.305H179.215V175.671C179.488 175.212 179.845 174.85 180.284 174.587C180.733 174.323 181.256 174.191 181.852 174.191C182.35 174.191 182.804 174.298 183.214 174.513C183.625 174.718 183.976 175.007 184.269 175.378C184.572 175.749 184.801 176.174 184.958 176.652C185.124 177.131 185.207 177.644 185.207 178.191C185.207 178.738 185.114 179.25 184.928 179.729C184.753 180.208 184.504 180.632 184.181 181.004C183.859 181.365 183.478 181.648 183.038 181.853C182.609 182.049 182.135 182.146 181.617 182.146ZM181.075 180.476C181.388 180.476 181.671 180.418 181.925 180.3C182.189 180.173 182.413 180.007 182.599 179.802C182.794 179.597 182.941 179.358 183.038 179.084C183.146 178.801 183.2 178.508 183.2 178.205C183.2 177.785 183.112 177.4 182.936 177.048C182.77 176.686 182.535 176.398 182.233 176.183C181.94 175.969 181.593 175.861 181.192 175.861C180.909 175.861 180.636 175.93 180.372 176.066C180.118 176.193 179.889 176.369 179.683 176.594C179.488 176.818 179.332 177.072 179.215 177.356V179.187C179.273 179.382 179.366 179.558 179.493 179.714C179.63 179.871 179.786 180.007 179.962 180.125C180.138 180.232 180.318 180.32 180.504 180.388C180.699 180.447 180.89 180.476 181.075 180.476Z" fill="#383838"/>
<path d="M199.683 165.147C199.068 165.147 198.511 165.044 198.013 164.839C197.515 164.624 197.09 164.336 196.738 163.975C196.387 163.604 196.113 163.184 195.918 162.715C195.732 162.236 195.64 161.733 195.64 161.206C195.64 160.473 195.801 159.804 196.123 159.199C196.455 158.593 196.924 158.11 197.53 157.748C198.145 157.377 198.868 157.191 199.698 157.191C200.538 157.191 201.256 157.377 201.852 157.748C202.447 158.11 202.902 158.593 203.214 159.199C203.537 159.794 203.698 160.439 203.698 161.133C203.698 161.25 203.693 161.372 203.683 161.499C203.673 161.616 203.664 161.714 203.654 161.792H197.72C197.759 162.183 197.871 162.524 198.057 162.817C198.252 163.11 198.497 163.335 198.79 163.491C199.092 163.638 199.415 163.711 199.757 163.711C200.147 163.711 200.514 163.618 200.855 163.433C201.207 163.237 201.446 162.983 201.573 162.671L203.258 163.14C203.073 163.53 202.804 163.877 202.452 164.18C202.111 164.483 201.705 164.722 201.236 164.898C200.767 165.064 200.25 165.147 199.683 165.147ZM197.676 160.546H201.691C201.651 160.156 201.539 159.819 201.354 159.536C201.178 159.243 200.943 159.018 200.65 158.862C200.357 158.696 200.03 158.613 199.669 158.613C199.317 158.613 198.995 158.696 198.702 158.862C198.418 159.018 198.184 159.243 197.998 159.536C197.823 159.819 197.715 160.156 197.676 160.546Z" fill="#383838"/>
<path d="M191.458 154.305H193.422V162.539C193.422 162.89 193.48 163.129 193.598 163.256C193.715 163.374 193.876 163.432 194.081 163.432C194.237 163.432 194.398 163.413 194.565 163.374C194.731 163.335 194.877 163.286 195.004 163.227L195.268 164.722C195.004 164.849 194.696 164.946 194.345 165.015C193.993 165.083 193.676 165.117 193.392 165.117C192.777 165.117 192.298 164.956 191.957 164.634C191.625 164.302 191.458 163.833 191.458 163.227V154.305Z" fill="#383838"/>
<path d="M181.561 161.161C181.561 160.419 181.708 159.75 182.001 159.154C182.294 158.549 182.699 158.07 183.217 157.718C183.735 157.367 184.325 157.191 184.99 157.191C185.556 157.191 186.064 157.333 186.513 157.616C186.972 157.889 187.329 158.241 187.583 158.671V154.305H189.546V162.802C189.546 163.007 189.58 163.154 189.649 163.242C189.717 163.33 189.834 163.383 190 163.403V165C189.658 165.068 189.38 165.102 189.165 165.102C188.814 165.102 188.521 165.015 188.286 164.839C188.061 164.663 187.934 164.433 187.905 164.15L187.876 163.667C187.593 164.145 187.207 164.512 186.718 164.766C186.24 165.019 185.737 165.146 185.209 165.146C184.682 165.146 184.194 165.044 183.744 164.839C183.305 164.634 182.919 164.35 182.587 163.989C182.265 163.628 182.011 163.208 181.825 162.729C181.649 162.241 181.561 161.718 181.561 161.161ZM187.583 162.187V160.356C187.485 160.072 187.329 159.818 187.114 159.594C186.899 159.369 186.66 159.193 186.396 159.066C186.132 158.93 185.869 158.861 185.605 158.861C185.302 158.861 185.029 158.925 184.785 159.052C184.54 159.179 184.325 159.35 184.14 159.564C183.964 159.779 183.827 160.028 183.73 160.312C183.642 160.595 183.598 160.893 183.598 161.205C183.598 161.518 183.647 161.816 183.744 162.099C183.852 162.373 184.003 162.612 184.198 162.817C184.394 163.022 184.618 163.183 184.872 163.3C185.136 163.418 185.419 163.476 185.722 163.476C185.908 163.476 186.093 163.447 186.279 163.388C186.474 163.32 186.655 163.232 186.821 163.125C186.997 163.007 187.148 162.871 187.275 162.714C187.412 162.548 187.514 162.373 187.583 162.187Z" fill="#383838"/>
<path d="M172.118 161.161C172.118 160.419 172.265 159.75 172.558 159.154C172.851 158.549 173.256 158.07 173.774 157.718C174.292 157.367 174.882 157.191 175.547 157.191C176.113 157.191 176.621 157.333 177.07 157.616C177.529 157.889 177.886 158.241 178.14 158.671V154.305H180.103V162.802C180.103 163.007 180.137 163.154 180.206 163.242C180.274 163.33 180.391 163.383 180.557 163.403V165C180.215 165.068 179.937 165.102 179.722 165.102C179.371 165.102 179.078 165.015 178.843 164.839C178.618 164.663 178.491 164.433 178.462 164.15L178.433 163.667C178.15 164.145 177.764 164.512 177.275 164.766C176.797 165.019 176.294 165.146 175.766 165.146C175.239 165.146 174.751 165.044 174.301 164.839C173.862 164.634 173.476 164.35 173.144 163.989C172.822 163.628 172.568 163.208 172.382 162.729C172.206 162.241 172.118 161.718 172.118 161.161ZM178.14 162.187V160.356C178.042 160.072 177.886 159.818 177.671 159.594C177.456 159.369 177.217 159.193 176.953 159.066C176.689 158.93 176.426 158.861 176.162 158.861C175.859 158.861 175.586 158.925 175.342 159.052C175.097 159.179 174.882 159.35 174.697 159.564C174.521 159.779 174.384 160.028 174.287 160.312C174.199 160.595 174.155 160.893 174.155 161.205C174.155 161.518 174.204 161.816 174.301 162.099C174.409 162.373 174.56 162.612 174.755 162.817C174.951 163.022 175.175 163.183 175.429 163.3C175.693 163.418 175.976 163.476 176.279 163.476C176.465 163.476 176.65 163.447 176.836 163.388C177.031 163.32 177.212 163.232 177.378 163.125C177.554 163.007 177.705 162.871 177.832 162.714C177.969 162.548 178.071 162.373 178.14 162.187Z" fill="#383838"/>
<path d="M168.853 165V157.323H170.816V165H168.853ZM168.853 156.253V154.305H170.816V156.253H168.853Z" fill="#383838"/>
<path d="M164.85 165V158.173L162.183 163.256H161.055L158.389 158.173V165H156.367V154.598H158.535L161.612 160.517L164.718 154.598H166.871V165H164.85Z" fill="#383838"/>
<path d="M274.326 91.6628C274.326 93.6856 272.686 95.3255 270.663 95.3255C268.64 95.3255 267 93.6856 267 91.6628C267 89.6399 268.64 88 270.663 88C272.686 88 274.326 89.6399 274.326 91.6628Z" fill="#0B0D54"/>
<path d="M256.229 98.3047H258.192V106.539C258.192 106.89 258.251 107.129 258.368 107.256C258.485 107.374 258.647 107.432 258.852 107.432C259.008 107.432 259.169 107.413 259.335 107.374C259.501 107.335 259.648 107.286 259.775 107.227L260.038 108.722C259.775 108.849 259.467 108.946 259.115 109.015C258.764 109.083 258.446 109.117 258.163 109.117C257.548 109.117 257.069 108.956 256.727 108.634C256.395 108.302 256.229 107.833 256.229 107.227V98.3047Z" fill="#383838"/>
<path d="M251.579 98.3047H253.542V106.539C253.542 106.89 253.601 107.129 253.718 107.256C253.835 107.374 253.997 107.432 254.202 107.432C254.358 107.432 254.519 107.413 254.685 107.374C254.851 107.335 254.998 107.286 255.125 107.227L255.388 108.722C255.125 108.849 254.817 108.946 254.465 109.015C254.114 109.083 253.796 109.117 253.513 109.117C252.898 109.117 252.419 108.956 252.077 108.634C251.745 108.302 251.579 107.833 251.579 107.227V98.3047Z" fill="#383838"/>
<path d="M242.464 106.128V101.322H244.427V105.703C244.427 106.289 244.534 106.733 244.749 107.036C244.964 107.329 245.282 107.476 245.702 107.476C245.956 107.476 246.205 107.427 246.449 107.329C246.703 107.222 246.932 107.065 247.137 106.86C247.352 106.655 247.533 106.396 247.68 106.084V101.322H249.643V106.802C249.643 107.007 249.677 107.153 249.745 107.241C249.823 107.329 249.946 107.383 250.112 107.402V108.999C249.916 109.029 249.75 109.048 249.613 109.058C249.486 109.078 249.369 109.087 249.262 109.087C248.91 109.087 248.622 109.009 248.397 108.853C248.183 108.687 248.056 108.462 248.016 108.179L247.973 107.564C247.631 108.081 247.191 108.477 246.654 108.75C246.117 109.014 245.526 109.146 244.881 109.146C244.09 109.146 243.489 108.892 243.079 108.384C242.669 107.866 242.464 107.114 242.464 106.128Z" fill="#383838"/>
<path d="M237.617 109.146C237.031 109.146 236.509 109.015 236.05 108.751C235.591 108.487 235.229 108.126 234.966 107.667V109H233.251V98.3047H235.215V102.671C235.488 102.212 235.845 101.85 236.284 101.587C236.733 101.323 237.256 101.191 237.852 101.191C238.35 101.191 238.804 101.298 239.214 101.513C239.625 101.718 239.976 102.007 240.269 102.378C240.572 102.749 240.801 103.174 240.958 103.652C241.124 104.131 241.207 104.644 241.207 105.191C241.207 105.738 241.114 106.25 240.928 106.729C240.753 107.208 240.504 107.632 240.181 108.004C239.859 108.365 239.478 108.648 239.038 108.853C238.609 109.049 238.135 109.146 237.617 109.146ZM237.075 107.476C237.388 107.476 237.671 107.418 237.925 107.3C238.189 107.173 238.413 107.007 238.599 106.802C238.794 106.597 238.941 106.358 239.038 106.084C239.146 105.801 239.2 105.508 239.2 105.205C239.2 104.785 239.112 104.4 238.936 104.048C238.77 103.686 238.535 103.398 238.233 103.183C237.94 102.969 237.593 102.861 237.192 102.861C236.909 102.861 236.636 102.93 236.372 103.066C236.118 103.193 235.889 103.369 235.683 103.594C235.488 103.818 235.332 104.072 235.215 104.356V106.187C235.273 106.382 235.366 106.558 235.493 106.714C235.63 106.871 235.786 107.007 235.962 107.125C236.138 107.232 236.318 107.32 236.504 107.388C236.699 107.447 236.89 107.476 237.075 107.476Z" fill="#383838"/>
<path d="M255.683 92.1459C255.068 92.1459 254.511 92.0434 254.013 91.8383C253.515 91.6234 253.09 91.3352 252.738 90.9738C252.387 90.6027 252.113 90.1827 251.918 89.7139C251.732 89.2353 251.64 88.7322 251.64 88.2048C251.64 87.4723 251.801 86.8032 252.123 86.1976C252.455 85.592 252.924 85.1086 253.53 84.7472C254.145 84.376 254.868 84.1904 255.698 84.1904C256.538 84.1904 257.256 84.376 257.852 84.7472C258.447 85.1086 258.902 85.592 259.214 86.1976C259.537 86.7934 259.698 87.4381 259.698 88.1316C259.698 88.2488 259.693 88.3709 259.683 88.4978C259.673 88.615 259.664 88.7127 259.654 88.7908H253.72C253.759 89.1815 253.871 89.5234 254.057 89.8164C254.252 90.1094 254.497 90.3341 254.79 90.4904C255.092 90.6369 255.415 90.7101 255.757 90.7101C256.147 90.7101 256.514 90.6173 256.855 90.4318C257.207 90.2364 257.446 89.9825 257.573 89.6699L259.258 90.1387C259.073 90.5294 258.804 90.8762 258.452 91.179C258.111 91.4817 257.705 91.721 257.236 91.8969C256.768 92.0629 256.25 92.1459 255.683 92.1459ZM253.676 87.5455H257.691C257.651 87.1548 257.539 86.8178 257.354 86.5346C257.178 86.2416 256.943 86.0169 256.65 85.8606C256.357 85.6946 256.03 85.6116 255.669 85.6116C255.317 85.6116 254.995 85.6946 254.702 85.8606C254.418 86.0169 254.184 86.2416 253.998 86.5346C253.823 86.8178 253.715 87.1548 253.676 87.5455Z" fill="#383838"/>
<path d="M251.201 91.6043C251.035 91.6726 250.835 91.7508 250.6 91.8387C250.366 91.9266 250.112 91.9949 249.838 92.0438C249.575 92.1024 249.306 92.1317 249.033 92.1317C248.671 92.1317 248.339 92.0682 248.036 91.9412C247.733 91.8143 247.489 91.614 247.304 91.3405C247.128 91.0573 247.04 90.691 247.04 90.2417V85.8318H246.029V84.3227H247.04V81.832H249.003V84.3227H250.615V85.8318H249.003V89.5824C249.013 89.8461 249.086 90.0366 249.223 90.1538C249.36 90.271 249.531 90.3296 249.736 90.3296C249.941 90.3296 250.141 90.2954 250.336 90.2271C250.532 90.1587 250.688 90.1001 250.805 90.0512L251.201 91.6043Z" fill="#383838"/>
<path d="M237.732 89.7285C237.732 89.2304 237.868 88.7957 238.142 88.4246C238.425 88.0436 238.816 87.7506 239.314 87.5455C239.812 87.3404 240.383 87.2378 241.028 87.2378C241.35 87.2378 241.678 87.2623 242.01 87.3111C242.342 87.3599 242.63 87.4381 242.874 87.5455V87.1353C242.874 86.6469 242.728 86.2709 242.435 86.0072C242.151 85.7434 241.726 85.6116 241.16 85.6116C240.74 85.6116 240.339 85.6848 239.959 85.8313C239.578 85.9779 239.177 86.1927 238.757 86.476L238.127 85.1867C238.635 84.8546 239.153 84.6055 239.68 84.4395C240.217 84.2735 240.779 84.1904 241.365 84.1904C242.459 84.1904 243.309 84.4639 243.914 85.0109C244.53 85.5579 244.837 86.3392 244.837 87.355V89.8018C244.837 90.0069 244.871 90.1534 244.94 90.2413C245.018 90.3292 245.14 90.3829 245.306 90.4025V91.9994C245.13 92.0287 244.969 92.0531 244.823 92.0727C244.686 92.0922 244.569 92.102 244.471 92.102C244.08 92.102 243.782 92.0141 243.577 91.8383C243.382 91.6624 243.26 91.4476 243.211 91.1936L243.167 90.798C242.835 91.2278 242.42 91.5599 241.922 91.7943C241.424 92.0287 240.916 92.1459 240.398 92.1459C239.89 92.1459 239.431 92.0434 239.021 91.8383C238.62 91.6234 238.303 91.3352 238.069 90.9738C237.844 90.6027 237.732 90.1876 237.732 89.7285ZM242.508 90.1241C242.615 90.0069 242.703 89.8897 242.772 89.7725C242.84 89.6553 242.874 89.5478 242.874 89.4501V88.6736C242.64 88.576 242.386 88.5027 242.112 88.4539C241.839 88.3953 241.58 88.366 241.336 88.366C240.828 88.366 240.408 88.4783 240.076 88.7029C239.753 88.9178 239.592 89.206 239.592 89.5673C239.592 89.7627 239.646 89.9483 239.753 90.1241C239.861 90.2999 240.017 90.4415 240.222 90.549C240.427 90.6564 240.672 90.7101 240.955 90.7101C241.248 90.7101 241.536 90.6564 241.819 90.549C242.102 90.4318 242.332 90.2901 242.508 90.1241Z" fill="#383838"/>
<path d="M229.894 91.9999V81.5977H231.915V90.2271H237.219V91.9999H229.894Z" fill="#383838"/>
<path d="M366.271 56.8268C366.271 58.8497 364.631 60.4896 362.608 60.4896C360.585 60.4896 358.945 58.8497 358.945 56.8268C358.945 54.8039 360.585 53.1641 362.608 53.1641C364.631 53.1641 366.271 54.8039 366.271 56.8268Z" fill="#101157"/>
<path d="M371.185 47.7748C370.589 47.7748 370.062 47.643 369.602 47.3793C369.153 47.1058 368.802 46.7395 368.548 46.2804V50.749H366.584V39.9512H368.299V41.2698C368.592 40.8205 368.963 40.4689 369.412 40.2149C369.861 39.9512 370.374 39.8193 370.95 39.8193C371.468 39.8193 371.942 39.9219 372.372 40.127C372.811 40.3321 373.192 40.6203 373.514 40.9914C373.837 41.3528 374.086 41.7728 374.261 42.2514C374.447 42.7202 374.54 43.2281 374.54 43.7751C374.54 44.5174 374.393 45.1914 374.1 45.7969C373.817 46.4025 373.421 46.886 372.914 47.2474C372.415 47.599 371.839 47.7748 371.185 47.7748ZM370.525 46.1046C370.828 46.1046 371.102 46.0411 371.346 45.9142C371.59 45.7872 371.8 45.6163 371.976 45.4014C372.162 45.1767 372.298 44.9277 372.386 44.6542C372.484 44.3709 372.533 44.0779 372.533 43.7751C372.533 43.4528 372.479 43.1549 372.372 42.8814C372.274 42.6079 372.127 42.3686 371.932 42.1635C371.737 41.9486 371.507 41.7826 371.243 41.6654C370.989 41.5482 370.711 41.4896 370.408 41.4896C370.223 41.4896 370.032 41.5237 369.837 41.5921C369.651 41.6507 369.471 41.7386 369.295 41.8558C369.119 41.973 368.963 42.1098 368.826 42.2661C368.699 42.4223 368.606 42.5933 368.548 42.7788V44.5809C368.665 44.8642 368.821 45.123 369.016 45.3574C369.222 45.5918 369.456 45.7774 369.72 45.9142C369.983 46.0411 370.252 46.1046 370.525 46.1046Z" fill="#383838"/>
<path d="M361.245 47.7748C360.62 47.7748 360.058 47.6723 359.56 47.4672C359.062 47.2523 358.637 46.9593 358.285 46.5881C357.943 46.2169 357.68 45.7921 357.494 45.3135C357.309 44.8349 357.216 44.3318 357.216 43.8044C357.216 43.2672 357.309 42.7593 357.494 42.2807C357.68 41.8021 357.943 41.3772 358.285 41.0061C358.637 40.6349 359.062 40.3468 359.56 40.1417C360.058 39.9268 360.62 39.8193 361.245 39.8193C361.87 39.8193 362.427 39.9268 362.915 40.1417C363.413 40.3468 363.838 40.6349 364.19 41.0061C364.541 41.3772 364.805 41.8021 364.981 42.2807C365.166 42.7593 365.259 43.2672 365.259 43.8044C365.259 44.3318 365.166 44.8349 364.981 45.3135C364.805 45.7921 364.541 46.2169 364.19 46.5881C363.848 46.9593 363.428 47.2523 362.93 47.4672C362.432 47.6723 361.87 47.7748 361.245 47.7748ZM359.238 43.8044C359.238 44.2537 359.326 44.6542 359.501 45.0058C359.677 45.3477 359.916 45.6163 360.219 45.8116C360.522 46.0069 360.864 46.1046 361.245 46.1046C361.616 46.1046 361.953 46.0069 362.256 45.8116C362.559 45.6065 362.798 45.333 362.974 44.9911C363.159 44.6395 363.252 44.2391 363.252 43.7898C363.252 43.3502 363.159 42.9547 362.974 42.603C362.798 42.2514 362.559 41.9779 362.256 41.7826C361.953 41.5872 361.616 41.4896 361.245 41.4896C360.864 41.4896 360.522 41.5921 360.219 41.7972C359.916 41.9926 359.677 42.2661 359.501 42.6177C359.326 42.9595 359.238 43.3551 359.238 43.8044Z" fill="#383838"/>
<path d="M358.044 38.9993H354.718V47.6288H352.711V38.9993H349.385V37.2266H358.044V38.9993Z" fill="#383838"/>
<path d="M487.146 20.1979C487.146 22.2208 485.506 23.8607 483.483 23.8607C481.46 23.8607 479.82 22.2208 479.82 20.1979C479.82 18.175 481.46 16.5352 483.483 16.5352C485.506 16.5352 487.146 18.175 487.146 20.1979Z" fill="#F166AD"/>
<path d="M497.457 10.9999L495.216 7.6888L494.175 8.71437V10.9999H492.212V0.304688H494.175V6.78043L497.267 3.33745H499.347L496.49 6.58997L499.552 10.9999H497.457Z" fill="#383838"/>
<path d="M483.272 8.72949C483.272 8.23135 483.409 7.79671 483.682 7.42555C483.965 7.04462 484.356 6.7516 484.854 6.54649C485.352 6.34137 485.924 6.23882 486.568 6.23882C486.891 6.23882 487.218 6.26323 487.55 6.31207C487.882 6.36091 488.17 6.43905 488.414 6.54649V6.13626C488.414 5.64789 488.268 5.27185 487.975 5.00813C487.692 4.74441 487.267 4.61255 486.7 4.61255C486.28 4.61255 485.88 4.68581 485.499 4.83232C485.118 4.97883 484.717 5.19371 484.297 5.47696L483.667 4.18767C484.175 3.85559 484.693 3.60652 485.22 3.44047C485.758 3.27443 486.319 3.19141 486.905 3.19141C487.999 3.19141 488.849 3.46489 489.455 4.01186C490.07 4.55883 490.378 5.34022 490.378 6.35602V8.80274C490.378 9.00786 490.412 9.15437 490.48 9.24227C490.558 9.33018 490.68 9.3839 490.846 9.40343V11.0004C490.671 11.0297 490.509 11.0541 490.363 11.0736C490.226 11.0932 490.109 11.103 490.011 11.103C489.621 11.103 489.323 11.015 489.118 10.8392C488.922 10.6634 488.8 10.4485 488.751 10.1946L488.707 9.79901C488.375 10.2288 487.96 10.5609 487.462 10.7953C486.964 11.0297 486.456 11.1469 485.938 11.1469C485.43 11.1469 484.971 11.0443 484.561 10.8392C484.161 10.6244 483.843 10.3362 483.609 9.97482C483.384 9.60366 483.272 9.18855 483.272 8.72949ZM488.048 9.12506C488.156 9.00786 488.243 8.89065 488.312 8.77344C488.38 8.65623 488.414 8.54879 488.414 8.45112V7.67461C488.18 7.57694 487.926 7.50369 487.653 7.45485C487.379 7.39625 487.12 7.36694 486.876 7.36694C486.368 7.36694 485.948 7.47927 485.616 7.70392C485.294 7.9188 485.133 8.20693 485.133 8.56833C485.133 8.76367 485.186 8.94925 485.294 9.12506C485.401 9.30088 485.557 9.4425 485.763 9.54994C485.968 9.65738 486.212 9.71111 486.495 9.71111C486.788 9.71111 487.076 9.65738 487.359 9.54994C487.643 9.43274 487.872 9.29111 488.048 9.12506Z" fill="#383838"/>
<path d="M478.589 11.1469C477.974 11.1469 477.417 11.0443 476.919 10.8392C476.42 10.6244 475.996 10.3362 475.644 9.97482C475.292 9.60366 475.019 9.18367 474.824 8.71484C474.638 8.23624 474.545 7.73322 474.545 7.20578C474.545 6.47323 474.706 5.80417 475.029 5.19859C475.361 4.59302 475.83 4.10954 476.435 3.74814C477.05 3.37699 477.773 3.19141 478.603 3.19141C479.443 3.19141 480.161 3.37699 480.757 3.74814C481.353 4.10954 481.807 4.59302 482.12 5.19859C482.442 5.7944 482.603 6.43905 482.603 7.13253C482.603 7.24974 482.598 7.37183 482.589 7.4988C482.579 7.61601 482.569 7.71368 482.559 7.79182H476.626C476.665 8.18252 476.777 8.52437 476.963 8.81739C477.158 9.11041 477.402 9.33506 477.695 9.49134C477.998 9.63785 478.32 9.71111 478.662 9.71111C479.053 9.71111 479.419 9.61832 479.761 9.43274C480.113 9.23739 480.352 8.98344 480.479 8.67088L482.164 9.13972C481.978 9.53041 481.71 9.87715 481.358 10.1799C481.016 10.4827 480.611 10.722 480.142 10.8978C479.673 11.0639 479.155 11.1469 478.589 11.1469ZM476.582 6.54649H480.596C480.557 6.15579 480.445 5.81882 480.259 5.53557C480.083 5.24255 479.849 5.0179 479.556 4.86162C479.263 4.69558 478.936 4.61255 478.574 4.61255C478.223 4.61255 477.9 4.69558 477.607 4.86162C477.324 5.0179 477.09 5.24255 476.904 5.53557C476.728 5.81882 476.621 6.15579 476.582 6.54649Z" fill="#383838"/>
<path d="M466.248 10.9999V0.597656H470.658C471.137 0.597656 471.576 0.695329 471.977 0.890676C472.377 1.08602 472.724 1.34974 473.017 1.68183C473.32 2.01392 473.554 2.38508 473.72 2.79531C473.886 3.20554 473.969 3.62553 473.969 4.05529C473.969 4.64133 473.833 5.19807 473.559 5.72551C473.286 6.25295 472.91 6.68271 472.431 7.0148C471.952 7.34689 471.386 7.51293 470.731 7.51293H468.27V10.9999H466.248ZM468.27 5.74016H470.614C470.858 5.74016 471.078 5.67179 471.274 5.53505C471.469 5.3983 471.625 5.20296 471.742 4.94901C471.86 4.68529 471.918 4.38738 471.918 4.05529C471.918 3.6939 471.85 3.38623 471.713 3.13228C471.586 2.87833 471.415 2.68787 471.2 2.56089C470.995 2.43392 470.771 2.37043 470.526 2.37043H468.27V5.74016Z" fill="#383838"/>
<path d="M465.169 115.428C465.169 117.451 463.529 119.091 461.507 119.091C459.484 119.091 457.844 117.451 457.844 115.428C457.844 113.405 459.484 111.766 461.507 111.766C463.529 111.766 465.169 113.405 465.169 115.428Z" fill="white"/>
<path d="M454.572 130.683C453.977 130.683 453.444 130.8 452.975 131.035C452.507 131.259 452.17 131.586 451.965 132.016V136.661H450.001V128.983H451.803V130.624C452.077 130.097 452.424 129.682 452.844 129.379C453.264 129.076 453.708 128.91 454.177 128.881C454.284 128.881 454.367 128.881 454.426 128.881C454.485 128.881 454.533 128.886 454.572 128.896V130.683Z" fill="white"/>
<path d="M441.061 134.39C441.061 133.892 441.198 133.457 441.471 133.086C441.755 132.705 442.145 132.412 442.643 132.207C443.141 132.002 443.713 131.899 444.358 131.899C444.68 131.899 445.007 131.923 445.339 131.972C445.671 132.021 445.959 132.099 446.204 132.207V131.796C446.204 131.308 446.057 130.932 445.764 130.668C445.481 130.405 445.056 130.273 444.489 130.273C444.069 130.273 443.669 130.346 443.288 130.492C442.907 130.639 442.507 130.854 442.087 131.137L441.457 129.848C441.965 129.516 442.482 129.267 443.01 129.101C443.547 128.935 444.108 128.852 444.694 128.852C445.788 128.852 446.638 129.125 447.244 129.672C447.859 130.219 448.167 131 448.167 132.016V134.463C448.167 134.668 448.201 134.815 448.269 134.902C448.347 134.99 448.47 135.044 448.636 135.064V136.661C448.46 136.69 448.299 136.714 448.152 136.734C448.015 136.753 447.898 136.763 447.8 136.763C447.41 136.763 447.112 136.675 446.907 136.499C446.711 136.324 446.589 136.109 446.541 135.855L446.497 135.459C446.164 135.889 445.749 136.221 445.251 136.455C444.753 136.69 444.245 136.807 443.728 136.807C443.22 136.807 442.761 136.705 442.35 136.499C441.95 136.285 441.632 135.996 441.398 135.635C441.173 135.264 441.061 134.849 441.061 134.39ZM445.837 134.785C445.945 134.668 446.033 134.551 446.101 134.434C446.169 134.316 446.204 134.209 446.204 134.111V133.335C445.969 133.237 445.715 133.164 445.442 133.115C445.168 133.056 444.909 133.027 444.665 133.027C444.157 133.027 443.737 133.139 443.405 133.364C443.083 133.579 442.922 133.867 442.922 134.228C442.922 134.424 442.975 134.609 443.083 134.785C443.19 134.961 443.347 135.103 443.552 135.21C443.757 135.318 444.001 135.371 444.284 135.371C444.577 135.371 444.865 135.318 445.149 135.21C445.432 135.093 445.661 134.951 445.837 134.785Z" fill="white"/>
<path d="M436.378 136.807C435.763 136.807 435.206 136.705 434.708 136.499C434.21 136.285 433.785 135.996 433.433 135.635C433.082 135.264 432.808 134.844 432.613 134.375C432.427 133.896 432.334 133.393 432.334 132.866C432.334 132.133 432.496 131.464 432.818 130.859C433.15 130.253 433.619 129.77 434.224 129.408C434.84 129.037 435.563 128.852 436.393 128.852C437.233 128.852 437.951 129.037 438.547 129.408C439.142 129.77 439.596 130.253 439.909 130.859C440.231 131.455 440.393 132.099 440.393 132.793C440.393 132.91 440.388 133.032 440.378 133.159C440.368 133.276 440.358 133.374 440.349 133.452H434.415C434.454 133.843 434.566 134.185 434.752 134.478C434.947 134.771 435.191 134.995 435.484 135.151C435.787 135.298 436.11 135.371 436.451 135.371C436.842 135.371 437.208 135.278 437.55 135.093C437.902 134.898 438.141 134.644 438.268 134.331L439.953 134.8C439.767 135.191 439.499 135.537 439.147 135.84C438.805 136.143 438.4 136.382 437.931 136.558C437.462 136.724 436.945 136.807 436.378 136.807ZM434.371 132.207H438.385C438.346 131.816 438.234 131.479 438.048 131.196C437.873 130.903 437.638 130.678 437.345 130.522C437.052 130.356 436.725 130.273 436.363 130.273C436.012 130.273 435.69 130.356 435.397 130.522C435.113 130.678 434.879 130.903 434.693 131.196C434.517 131.479 434.41 131.816 434.371 132.207Z" fill="white"/>
<path d="M427.898 136.807C427.312 136.807 426.79 136.675 426.331 136.411C425.872 136.147 425.51 135.786 425.246 135.327V136.66H423.532V125.965H425.495V130.331C425.769 129.872 426.125 129.51 426.565 129.247C427.014 128.983 427.537 128.851 428.133 128.851C428.631 128.851 429.085 128.959 429.495 129.173C429.905 129.379 430.257 129.667 430.55 130.038C430.853 130.409 431.082 130.834 431.239 131.312C431.405 131.791 431.488 132.304 431.488 132.851C431.488 133.398 431.395 133.911 431.209 134.389C431.034 134.868 430.784 135.293 430.462 135.664C430.14 136.025 429.759 136.308 429.319 136.514C428.89 136.709 428.416 136.807 427.898 136.807ZM427.356 135.136C427.669 135.136 427.952 135.078 428.206 134.961C428.47 134.834 428.694 134.668 428.88 134.462C429.075 134.257 429.222 134.018 429.319 133.745C429.427 133.461 429.481 133.168 429.481 132.865C429.481 132.445 429.393 132.06 429.217 131.708C429.051 131.347 428.816 131.059 428.514 130.844C428.221 130.629 427.874 130.521 427.473 130.521C427.19 130.521 426.917 130.59 426.653 130.726C426.399 130.853 426.169 131.029 425.964 131.254C425.769 131.479 425.613 131.732 425.495 132.016V133.847C425.554 134.042 425.647 134.218 425.774 134.375C425.911 134.531 426.067 134.668 426.243 134.785C426.418 134.892 426.599 134.98 426.785 135.048C426.98 135.107 427.171 135.136 427.356 135.136Z" fill="white"/>
<path d="M447.773 121.155C447.949 121.194 448.11 121.228 448.257 121.257C448.413 121.287 448.545 121.301 448.652 121.301C448.838 121.301 448.989 121.253 449.106 121.155C449.233 121.067 449.355 120.901 449.473 120.657C449.59 120.422 449.712 120.09 449.839 119.661L446.806 111.983H448.843L450.908 117.653L452.725 111.983H454.6L451.377 121.184C451.26 121.526 451.079 121.834 450.835 122.107C450.601 122.39 450.303 122.61 449.941 122.767C449.59 122.933 449.194 123.016 448.755 123.016C448.598 123.016 448.442 123.001 448.286 122.972C448.13 122.952 447.959 122.913 447.773 122.854V121.155Z" fill="white"/>
<path d="M443.334 108.965H445.297V117.199C445.297 117.55 445.355 117.79 445.473 117.917C445.59 118.034 445.751 118.092 445.956 118.092C446.112 118.092 446.274 118.073 446.44 118.034C446.606 117.995 446.752 117.946 446.879 117.887L447.143 119.382C446.879 119.509 446.571 119.606 446.22 119.675C445.868 119.743 445.551 119.777 445.268 119.777C444.652 119.777 444.174 119.616 443.832 119.294C443.5 118.962 443.334 118.493 443.334 117.887V108.965Z" fill="white"/>
<path d="M442.254 113.683C441.658 113.683 441.125 113.8 440.657 114.035C440.188 114.259 439.851 114.586 439.646 115.016V119.661H437.682V111.983H439.485V113.624C439.758 113.097 440.105 112.682 440.525 112.379C440.945 112.076 441.389 111.91 441.858 111.881C441.965 111.881 442.048 111.881 442.107 111.881C442.166 111.881 442.215 111.886 442.254 111.896V113.683Z" fill="white"/>
<path d="M428.742 117.39C428.742 116.892 428.879 116.457 429.152 116.086C429.436 115.705 429.826 115.412 430.324 115.207C430.823 115.002 431.394 114.899 432.039 114.899C432.361 114.899 432.688 114.923 433.02 114.972C433.352 115.021 433.641 115.099 433.885 115.207V114.796C433.885 114.308 433.738 113.932 433.445 113.668C433.162 113.405 432.737 113.273 432.171 113.273C431.751 113.273 431.35 113.346 430.969 113.492C430.588 113.639 430.188 113.854 429.768 114.137L429.138 112.848C429.646 112.516 430.163 112.267 430.691 112.101C431.228 111.935 431.79 111.852 432.376 111.852C433.47 111.852 434.319 112.125 434.925 112.672C435.54 113.219 435.848 114 435.848 115.016V117.463C435.848 117.668 435.882 117.815 435.95 117.902C436.029 117.99 436.151 118.044 436.317 118.064V119.661C436.141 119.69 435.98 119.714 435.833 119.734C435.697 119.753 435.579 119.763 435.482 119.763C435.091 119.763 434.793 119.675 434.588 119.499C434.393 119.324 434.271 119.109 434.222 118.855L434.178 118.459C433.846 118.889 433.431 119.221 432.932 119.455C432.434 119.69 431.926 119.807 431.409 119.807C430.901 119.807 430.442 119.705 430.031 119.499C429.631 119.285 429.314 118.996 429.079 118.635C428.855 118.264 428.742 117.849 428.742 117.39ZM433.518 117.785C433.626 117.668 433.714 117.551 433.782 117.434C433.851 117.316 433.885 117.209 433.885 117.111V116.335C433.65 116.237 433.396 116.164 433.123 116.115C432.849 116.056 432.591 116.027 432.346 116.027C431.838 116.027 431.418 116.139 431.086 116.364C430.764 116.579 430.603 116.867 430.603 117.228C430.603 117.424 430.657 117.609 430.764 117.785C430.871 117.961 431.028 118.103 431.233 118.21C431.438 118.318 431.682 118.371 431.965 118.371C432.258 118.371 432.547 118.318 432.83 118.21C433.113 118.093 433.343 117.951 433.518 117.785Z" fill="white"/>
<path d="M427.884 117.887V119.66H420.661V109.258H427.752V111.031H422.683V113.536H427.063V115.177H422.683V117.887H427.884Z" fill="white"/>
<path d="M526.216 230.194C526.216 232.217 524.576 233.857 522.553 233.857C520.53 233.857 518.891 232.217 518.891 230.194C518.891 228.171 520.53 226.531 522.553 226.531C524.576 226.531 526.216 228.171 526.216 230.194Z" fill="white"/>
<path d="M513.963 245.452C513.367 245.452 512.835 245.57 512.366 245.804C511.897 246.029 511.56 246.356 511.355 246.786V251.43H509.392V243.753H511.194V245.394C511.468 244.866 511.814 244.451 512.234 244.149C512.654 243.846 513.099 243.68 513.568 243.65C513.675 243.65 513.758 243.65 513.817 243.65C513.875 243.65 513.924 243.655 513.963 243.665V245.452Z" fill="white"/>
<path d="M500.452 249.159C500.452 248.661 500.588 248.226 500.862 247.855C501.145 247.474 501.536 247.181 502.034 246.976C502.532 246.771 503.103 246.669 503.748 246.669C504.07 246.669 504.398 246.693 504.73 246.742C505.062 246.791 505.35 246.869 505.594 246.976V246.566C505.594 246.078 505.448 245.702 505.155 245.438C504.871 245.174 504.447 245.042 503.88 245.042C503.46 245.042 503.06 245.115 502.679 245.262C502.298 245.409 501.897 245.623 501.477 245.907L500.847 244.617C501.355 244.285 501.873 244.036 502.4 243.87C502.937 243.704 503.499 243.621 504.085 243.621C505.179 243.621 506.029 243.895 506.634 244.442C507.25 244.989 507.557 245.77 507.557 246.786V249.232C507.557 249.438 507.592 249.584 507.66 249.672C507.738 249.76 507.86 249.814 508.026 249.833V251.43C507.85 251.459 507.689 251.484 507.543 251.503C507.406 251.523 507.289 251.533 507.191 251.533C506.8 251.533 506.503 251.445 506.297 251.269C506.102 251.093 505.98 250.878 505.931 250.624L505.887 250.229C505.555 250.658 505.14 250.991 504.642 251.225C504.144 251.459 503.636 251.577 503.118 251.577C502.61 251.577 502.151 251.474 501.741 251.269C501.34 251.054 501.023 250.766 500.789 250.405C500.564 250.033 500.452 249.618 500.452 249.159ZM505.228 249.555C505.335 249.438 505.423 249.32 505.492 249.203C505.56 249.086 505.594 248.978 505.594 248.881V248.104C505.36 248.007 505.106 247.933 504.832 247.885C504.559 247.826 504.3 247.797 504.056 247.797C503.548 247.797 503.128 247.909 502.796 248.134C502.474 248.348 502.312 248.637 502.312 248.998C502.312 249.193 502.366 249.379 502.473 249.555C502.581 249.731 502.737 249.872 502.942 249.98C503.147 250.087 503.392 250.141 503.675 250.141C503.968 250.141 504.256 250.087 504.539 249.98C504.823 249.862 505.052 249.721 505.228 249.555Z" fill="white"/>
<path d="M495.769 251.577C495.153 251.577 494.597 251.474 494.098 251.269C493.6 251.054 493.175 250.766 492.824 250.405C492.472 250.033 492.199 249.613 492.003 249.145C491.818 248.666 491.725 248.163 491.725 247.635C491.725 246.903 491.886 246.234 492.208 245.628C492.541 245.023 493.009 244.539 493.615 244.178C494.23 243.807 494.953 243.621 495.783 243.621C496.623 243.621 497.341 243.807 497.937 244.178C498.533 244.539 498.987 245.023 499.3 245.628C499.622 246.224 499.783 246.869 499.783 247.562C499.783 247.679 499.778 247.802 499.768 247.928C499.759 248.046 499.749 248.143 499.739 248.222H493.805C493.844 248.612 493.957 248.954 494.142 249.247C494.338 249.54 494.582 249.765 494.875 249.921C495.178 250.068 495.5 250.141 495.842 250.141C496.233 250.141 496.599 250.048 496.941 249.862C497.292 249.667 497.532 249.413 497.659 249.101L499.343 249.569C499.158 249.96 498.889 250.307 498.538 250.61C498.196 250.912 497.79 251.152 497.322 251.328C496.853 251.494 496.335 251.577 495.769 251.577ZM493.761 246.976H497.776C497.737 246.585 497.624 246.249 497.439 245.965C497.263 245.672 497.029 245.448 496.736 245.291C496.443 245.125 496.115 245.042 495.754 245.042C495.402 245.042 495.08 245.125 494.787 245.291C494.504 245.448 494.269 245.672 494.084 245.965C493.908 246.249 493.801 246.585 493.761 246.976Z" fill="white"/>
<path d="M487.289 251.576C486.703 251.576 486.18 251.444 485.721 251.181C485.262 250.917 484.901 250.555 484.637 250.096V251.43H482.923V240.734H484.886V245.1C485.16 244.641 485.516 244.28 485.956 244.016C486.405 243.752 486.927 243.621 487.523 243.621C488.021 243.621 488.476 243.728 488.886 243.943C489.296 244.148 489.648 244.436 489.941 244.807C490.243 245.179 490.473 245.603 490.629 246.082C490.795 246.561 490.878 247.073 490.878 247.62C490.878 248.167 490.786 248.68 490.6 249.159C490.424 249.637 490.175 250.062 489.853 250.433C489.53 250.795 489.15 251.078 488.71 251.283C488.28 251.478 487.807 251.576 487.289 251.576ZM486.747 249.906C487.059 249.906 487.343 249.847 487.597 249.73C487.86 249.603 488.085 249.437 488.27 249.232C488.466 249.027 488.612 248.788 488.71 248.514C488.817 248.231 488.871 247.938 488.871 247.635C488.871 247.215 488.783 246.829 488.607 246.478C488.441 246.116 488.207 245.828 487.904 245.613C487.611 245.398 487.264 245.291 486.864 245.291C486.581 245.291 486.307 245.359 486.044 245.496C485.79 245.623 485.56 245.799 485.355 246.023C485.16 246.248 485.003 246.502 484.886 246.785V248.617C484.945 248.812 485.037 248.988 485.164 249.144C485.301 249.3 485.457 249.437 485.633 249.554C485.809 249.662 485.99 249.75 486.175 249.818C486.371 249.877 486.561 249.906 486.747 249.906Z" fill="white"/>
<path d="M509.847 234.577C509.232 234.577 508.675 234.474 508.177 234.269C507.679 234.054 507.254 233.766 506.903 233.405C506.551 233.033 506.277 232.613 506.082 232.145C505.897 231.666 505.804 231.163 505.804 230.635C505.804 229.903 505.965 229.234 506.287 228.628C506.619 228.023 507.088 227.539 507.694 227.178C508.309 226.807 509.032 226.621 509.862 226.621C510.702 226.621 511.42 226.807 512.016 227.178C512.612 227.539 513.066 228.023 513.378 228.628C513.701 229.224 513.862 229.869 513.862 230.562C513.862 230.679 513.857 230.802 513.847 230.928C513.837 231.046 513.828 231.143 513.818 231.222H507.884C507.923 231.612 508.036 231.954 508.221 232.247C508.416 232.54 508.661 232.765 508.954 232.921C509.256 233.068 509.579 233.141 509.921 233.141C510.311 233.141 510.678 233.048 511.019 232.862C511.371 232.667 511.61 232.413 511.737 232.101L513.422 232.569C513.237 232.96 512.968 233.307 512.616 233.61C512.275 233.912 511.869 234.152 511.4 234.328C510.932 234.494 510.414 234.577 509.847 234.577ZM507.84 229.976H511.855C511.816 229.585 511.703 229.249 511.518 228.965C511.342 228.672 511.107 228.448 510.814 228.291C510.521 228.125 510.194 228.042 509.833 228.042C509.481 228.042 509.159 228.125 508.866 228.291C508.583 228.448 508.348 228.672 508.163 228.965C507.987 229.249 507.879 229.585 507.84 229.976Z" fill="white"/>
<path d="M501.623 223.734H503.586V231.968C503.586 232.32 503.644 232.559 503.762 232.686C503.879 232.803 504.04 232.862 504.245 232.862C504.401 232.862 504.563 232.842 504.729 232.803C504.895 232.764 505.041 232.715 505.168 232.657L505.432 234.151C505.168 234.278 504.86 234.376 504.509 234.444C504.157 234.513 503.84 234.547 503.556 234.547C502.941 234.547 502.463 234.386 502.121 234.063C501.789 233.731 501.623 233.262 501.623 232.657V223.734Z" fill="white"/>
<path d="M491.725 230.591C491.725 229.849 491.872 229.18 492.165 228.584C492.458 227.978 492.863 227.5 493.381 227.148C493.899 226.796 494.489 226.621 495.154 226.621C495.72 226.621 496.228 226.762 496.677 227.046C497.136 227.319 497.493 227.671 497.747 228.1V223.734H499.71V232.232C499.71 232.437 499.744 232.584 499.813 232.671C499.881 232.759 499.998 232.813 500.164 232.833V234.43C499.822 234.498 499.544 234.532 499.329 234.532C498.978 234.532 498.685 234.444 498.45 234.268C498.226 234.093 498.099 233.863 498.069 233.58L498.04 233.096C497.757 233.575 497.371 233.941 496.882 234.195C496.404 234.449 495.901 234.576 495.373 234.576C494.846 234.576 494.358 234.474 493.908 234.268C493.469 234.063 493.083 233.78 492.751 233.419C492.429 233.057 492.175 232.637 491.989 232.159C491.813 231.67 491.725 231.148 491.725 230.591ZM497.747 231.617V229.785C497.649 229.502 497.493 229.248 497.278 229.023C497.063 228.799 496.824 228.623 496.56 228.496C496.296 228.359 496.033 228.291 495.769 228.291C495.466 228.291 495.193 228.354 494.949 228.481C494.704 228.608 494.489 228.779 494.304 228.994C494.128 229.209 493.991 229.458 493.894 229.741C493.806 230.025 493.762 230.322 493.762 230.635C493.762 230.948 493.811 231.245 493.908 231.529C494.016 231.802 494.167 232.041 494.363 232.247C494.558 232.452 494.783 232.613 495.036 232.73C495.3 232.847 495.583 232.906 495.886 232.906C496.072 232.906 496.257 232.877 496.443 232.818C496.638 232.75 496.819 232.662 496.985 232.554C497.161 232.437 497.312 232.3 497.439 232.144C497.576 231.978 497.679 231.802 497.747 231.617Z" fill="white"/>
<path d="M482.282 230.591C482.282 229.849 482.429 229.18 482.722 228.584C483.015 227.978 483.42 227.5 483.938 227.148C484.456 226.796 485.047 226.621 485.711 226.621C486.277 226.621 486.785 226.762 487.234 227.046C487.693 227.319 488.05 227.671 488.304 228.1V223.734H490.267V232.232C490.267 232.437 490.301 232.584 490.37 232.671C490.438 232.759 490.555 232.813 490.721 232.833V234.43C490.379 234.498 490.101 234.532 489.886 234.532C489.535 234.532 489.242 234.444 489.007 234.268C488.783 234.093 488.656 233.863 488.626 233.58L488.597 233.096C488.314 233.575 487.928 233.941 487.44 234.195C486.961 234.449 486.458 234.576 485.93 234.576C485.403 234.576 484.915 234.474 484.465 234.268C484.026 234.063 483.64 233.78 483.308 233.419C482.986 233.057 482.732 232.637 482.546 232.159C482.37 231.67 482.282 231.148 482.282 230.591ZM488.304 231.617V229.785C488.206 229.502 488.05 229.248 487.835 229.023C487.62 228.799 487.381 228.623 487.117 228.496C486.853 228.359 486.59 228.291 486.326 228.291C486.023 228.291 485.75 228.354 485.506 228.481C485.261 228.608 485.047 228.779 484.861 228.994C484.685 229.209 484.548 229.458 484.451 229.741C484.363 230.025 484.319 230.322 484.319 230.635C484.319 230.948 484.368 231.245 484.465 231.529C484.573 231.802 484.724 232.041 484.92 232.247C485.115 232.452 485.34 232.613 485.593 232.73C485.857 232.847 486.14 232.906 486.443 232.906C486.629 232.906 486.814 232.877 487 232.818C487.195 232.75 487.376 232.662 487.542 232.554C487.718 232.437 487.869 232.3 487.996 232.144C488.133 231.978 488.236 231.802 488.304 231.617Z" fill="white"/>
<path d="M479.017 234.43V226.752H480.98V234.43H479.017ZM479.017 225.683V223.734H480.98V225.683H479.017Z" fill="white"/>
<path d="M475.014 234.43V227.602L472.347 232.686H471.219L468.553 227.602V234.43H466.531V224.027H468.699L471.776 229.946L474.882 224.027H477.036V234.43H475.014Z" fill="white"/>
<path d="M642.201 254.612C642.201 256.635 640.561 258.275 638.538 258.275C636.515 258.275 634.875 256.635 634.875 254.612C634.875 252.589 636.515 250.949 638.538 250.949C640.561 250.949 642.201 252.589 642.201 254.612Z" fill="#0B0D54"/>
<path d="M628.804 275.848H626.841V271.541C626.841 270.925 626.733 270.476 626.518 270.193C626.303 269.91 626.006 269.768 625.625 269.768C625.361 269.768 625.092 269.836 624.819 269.973C624.555 270.11 624.316 270.3 624.101 270.544C623.886 270.779 623.73 271.052 623.632 271.365V275.848H621.669V268.171H623.442V269.592C623.637 269.26 623.886 268.982 624.189 268.757C624.492 268.523 624.838 268.347 625.229 268.23C625.629 268.103 626.049 268.039 626.489 268.039C626.968 268.039 627.358 268.127 627.661 268.303C627.974 268.469 628.208 268.698 628.364 268.991C628.53 269.275 628.643 269.597 628.701 269.958C628.77 270.32 628.804 270.686 628.804 271.057V275.848Z" fill="#383838"/>
<path d="M616.329 275.995C615.704 275.995 615.143 275.892 614.644 275.687C614.146 275.472 613.721 275.179 613.37 274.808C613.028 274.437 612.764 274.012 612.579 273.533C612.393 273.055 612.3 272.552 612.3 272.024C612.3 271.487 612.393 270.979 612.579 270.5C612.764 270.022 613.028 269.597 613.37 269.226C613.721 268.855 614.146 268.566 614.644 268.361C615.143 268.147 615.704 268.039 616.329 268.039C616.954 268.039 617.511 268.147 618 268.361C618.498 268.566 618.923 268.855 619.274 269.226C619.626 269.597 619.89 270.022 620.065 270.5C620.251 270.979 620.344 271.487 620.344 272.024C620.344 272.552 620.251 273.055 620.065 273.533C619.89 274.012 619.626 274.437 619.274 274.808C618.932 275.179 618.512 275.472 618.014 275.687C617.516 275.892 616.954 275.995 616.329 275.995ZM614.322 272.024C614.322 272.473 614.41 272.874 614.586 273.226C614.762 273.567 615.001 273.836 615.304 274.031C615.607 274.227 615.948 274.324 616.329 274.324C616.7 274.324 617.037 274.227 617.34 274.031C617.643 273.826 617.882 273.553 618.058 273.211C618.244 272.859 618.337 272.459 618.337 272.009C618.337 271.57 618.244 271.174 618.058 270.823C617.882 270.471 617.643 270.198 617.34 270.002C617.037 269.807 616.7 269.709 616.329 269.709C615.948 269.709 615.607 269.812 615.304 270.017C615.001 270.212 614.762 270.486 614.586 270.837C614.41 271.179 614.322 271.575 614.322 272.024Z" fill="#383838"/>
<path d="M609.05 275.848V268.17H611.013V275.848H609.05ZM609.05 267.101V265.152H611.013V267.101H609.05Z" fill="#383838"/>
<path d="M604.638 275.995C603.983 275.995 603.358 275.887 602.762 275.672C602.166 275.457 601.654 275.14 601.224 274.72L601.927 273.445C602.386 273.816 602.835 274.09 603.275 274.266C603.724 274.442 604.154 274.529 604.564 274.529C604.945 274.529 605.248 274.461 605.473 274.324C605.707 274.188 605.824 273.982 605.824 273.709C605.824 273.523 605.761 273.382 605.634 273.284C605.507 273.177 605.321 273.084 605.077 273.006C604.843 272.928 604.555 272.84 604.213 272.742C603.646 272.556 603.172 272.376 602.792 272.2C602.411 272.024 602.122 271.804 601.927 271.541C601.742 271.267 601.649 270.92 601.649 270.5C601.649 269.993 601.776 269.558 602.03 269.196C602.293 268.825 602.655 268.537 603.114 268.332C603.583 268.127 604.13 268.024 604.755 268.024C605.302 268.024 605.819 268.112 606.308 268.288C606.796 268.454 607.241 268.728 607.641 269.109L606.85 270.354C606.459 270.051 606.088 269.831 605.736 269.695C605.385 269.548 605.028 269.475 604.667 269.475C604.462 269.475 604.266 269.499 604.081 269.548C603.905 269.597 603.759 269.68 603.641 269.797C603.534 269.905 603.48 270.061 603.48 270.266C603.48 270.452 603.529 270.598 603.627 270.706C603.734 270.803 603.89 270.891 604.095 270.969C604.31 271.047 604.569 271.135 604.872 271.233C605.487 271.409 606.005 271.589 606.425 271.775C606.855 271.961 607.177 272.19 607.392 272.464C607.607 272.727 607.714 273.094 607.714 273.562C607.714 274.324 607.436 274.92 606.879 275.35C606.322 275.78 605.575 275.995 604.638 275.995Z" fill="#383838"/>
<path d="M597.398 275.995C596.743 275.995 596.118 275.887 595.522 275.672C594.927 275.457 594.414 275.14 593.984 274.72L594.687 273.445C595.146 273.816 595.596 274.09 596.035 274.266C596.485 274.442 596.914 274.529 597.325 274.529C597.705 274.529 598.008 274.461 598.233 274.324C598.467 274.188 598.585 273.982 598.585 273.709C598.585 273.523 598.521 273.382 598.394 273.284C598.267 273.177 598.082 273.084 597.837 273.006C597.603 272.928 597.315 272.84 596.973 272.742C596.406 272.556 595.933 272.376 595.552 272.2C595.171 272.024 594.883 271.804 594.687 271.541C594.502 271.267 594.409 270.92 594.409 270.5C594.409 269.993 594.536 269.558 594.79 269.196C595.054 268.825 595.415 268.537 595.874 268.332C596.343 268.127 596.89 268.024 597.515 268.024C598.062 268.024 598.58 268.112 599.068 268.288C599.556 268.454 600.001 268.728 600.401 269.109L599.61 270.354C599.219 270.051 598.848 269.831 598.497 269.695C598.145 269.548 597.789 269.475 597.427 269.475C597.222 269.475 597.027 269.499 596.841 269.548C596.665 269.597 596.519 269.68 596.402 269.797C596.294 269.905 596.24 270.061 596.24 270.266C596.24 270.452 596.289 270.598 596.387 270.706C596.494 270.803 596.651 270.891 596.856 270.969C597.071 271.047 597.329 271.135 597.632 271.233C598.248 271.409 598.765 271.589 599.185 271.775C599.615 271.961 599.937 272.19 600.152 272.464C600.367 272.727 600.475 273.094 600.475 273.562C600.475 274.324 600.196 274.92 599.639 275.35C599.083 275.78 598.335 275.995 597.398 275.995Z" fill="#383838"/>
<path d="M589.36 275.995C588.744 275.995 588.188 275.892 587.69 275.687C587.191 275.472 586.767 275.184 586.415 274.822C586.063 274.451 585.79 274.031 585.595 273.562C585.409 273.084 585.316 272.581 585.316 272.053C585.316 271.321 585.477 270.652 585.8 270.046C586.132 269.441 586.601 268.957 587.206 268.596C587.821 268.225 588.544 268.039 589.374 268.039C590.214 268.039 590.932 268.225 591.528 268.596C592.124 268.957 592.578 269.441 592.891 270.046C593.213 270.642 593.374 271.287 593.374 271.98C593.374 272.097 593.369 272.219 593.36 272.346C593.35 272.464 593.34 272.561 593.33 272.639H587.397C587.436 273.03 587.548 273.372 587.734 273.665C587.929 273.958 588.173 274.183 588.466 274.339C588.769 274.486 589.091 274.559 589.433 274.559C589.824 274.559 590.19 274.466 590.532 274.28C590.884 274.085 591.123 273.831 591.25 273.519L592.935 273.987C592.749 274.378 592.481 274.725 592.129 275.028C591.787 275.33 591.382 275.57 590.913 275.745C590.444 275.912 589.926 275.995 589.36 275.995ZM587.353 271.394H591.367C591.328 271.003 591.216 270.666 591.03 270.383C590.854 270.09 590.62 269.866 590.327 269.709C590.034 269.543 589.707 269.46 589.345 269.46C588.994 269.46 588.671 269.543 588.378 269.709C588.095 269.866 587.861 270.09 587.675 270.383C587.499 270.666 587.392 271.003 587.353 271.394Z" fill="#383838"/>
<path d="M581.176 275.995C580.551 275.995 579.99 275.892 579.491 275.687C578.993 275.472 578.568 275.179 578.217 274.808C577.865 274.427 577.592 273.997 577.396 273.519C577.211 273.04 577.118 272.537 577.118 272.009C577.118 271.287 577.279 270.627 577.601 270.032C577.933 269.426 578.402 268.943 579.008 268.581C579.613 268.22 580.331 268.039 581.162 268.039C581.992 268.039 582.705 268.22 583.301 268.581C583.896 268.943 584.341 269.416 584.634 270.002L582.715 270.588C582.549 270.305 582.329 270.09 582.055 269.944C581.782 269.787 581.479 269.709 581.147 269.709C580.776 269.709 580.434 269.807 580.121 270.002C579.819 270.188 579.579 270.456 579.403 270.808C579.228 271.15 579.14 271.55 579.14 272.009C579.14 272.459 579.228 272.859 579.403 273.211C579.589 273.553 579.833 273.826 580.136 274.031C580.439 274.227 580.776 274.324 581.147 274.324C581.381 274.324 581.601 274.285 581.806 274.207C582.021 274.129 582.212 274.022 582.378 273.885C582.544 273.748 582.666 273.592 582.744 273.416L584.663 274.002C584.487 274.383 584.229 274.725 583.887 275.028C583.555 275.33 583.159 275.57 582.7 275.745C582.251 275.912 581.743 275.995 581.176 275.995Z" fill="#383838"/>
<path d="M572.391 275.995C571.776 275.995 571.219 275.892 570.721 275.687C570.223 275.472 569.798 275.184 569.446 274.822C569.094 274.451 568.821 274.031 568.626 273.562C568.44 273.084 568.347 272.581 568.347 272.053C568.347 271.321 568.508 270.652 568.831 270.046C569.163 269.441 569.632 268.957 570.237 268.596C570.853 268.225 571.575 268.039 572.406 268.039C573.246 268.039 573.964 268.225 574.559 268.596C575.155 268.957 575.609 269.441 575.922 270.046C576.244 270.642 576.405 271.287 576.405 271.98C576.405 272.097 576.4 272.219 576.391 272.346C576.381 272.464 576.371 272.561 576.361 272.639H570.428C570.467 273.03 570.579 273.372 570.765 273.665C570.96 273.958 571.204 274.183 571.497 274.339C571.8 274.486 572.122 274.559 572.464 274.559C572.855 274.559 573.221 274.466 573.563 274.28C573.915 274.085 574.154 273.831 574.281 273.519L575.966 273.987C575.78 274.378 575.512 274.725 575.16 275.028C574.818 275.33 574.413 275.57 573.944 275.745C573.475 275.912 572.957 275.995 572.391 275.995ZM570.384 271.394H574.398C574.359 271.003 574.247 270.666 574.061 270.383C573.885 270.09 573.651 269.866 573.358 269.709C573.065 269.543 572.738 269.46 572.376 269.46C572.025 269.46 571.702 269.543 571.409 269.709C571.126 269.866 570.892 270.09 570.706 270.383C570.53 270.666 570.423 271.003 570.384 271.394Z" fill="#383838"/>
<path d="M567.836 269.87C567.24 269.87 566.708 269.988 566.239 270.222C565.77 270.447 565.433 270.774 565.228 271.204V275.848H563.265V268.171H565.067V269.812C565.341 269.284 565.687 268.869 566.107 268.566C566.527 268.264 566.972 268.098 567.441 268.068C567.548 268.068 567.631 268.068 567.69 268.068C567.748 268.068 567.797 268.073 567.836 268.083V269.87Z" fill="#383838"/>
<path d="M625.301 258.995C624.685 258.995 624.129 258.892 623.63 258.687C623.132 258.472 622.707 258.184 622.356 257.822C622.004 257.451 621.731 257.031 621.535 256.562C621.35 256.084 621.257 255.581 621.257 255.053C621.257 254.321 621.418 253.652 621.74 253.046C622.073 252.441 622.541 251.957 623.147 251.596C623.762 251.225 624.485 251.039 625.315 251.039C626.155 251.039 626.873 251.225 627.469 251.596C628.065 251.957 628.519 252.441 628.832 253.046C629.154 253.642 629.315 254.287 629.315 254.98C629.315 255.097 629.31 255.219 629.3 255.346C629.291 255.464 629.281 255.561 629.271 255.639H623.337C623.376 256.03 623.489 256.372 623.674 256.665C623.87 256.958 624.114 257.183 624.407 257.339C624.71 257.486 625.032 257.559 625.374 257.559C625.765 257.559 626.131 257.466 626.473 257.28C626.824 257.085 627.064 256.831 627.191 256.519L628.875 256.987C628.69 257.378 628.421 257.725 628.07 258.028C627.728 258.33 627.322 258.57 626.854 258.745C626.385 258.912 625.867 258.995 625.301 258.995ZM623.293 254.394H627.308C627.269 254.003 627.156 253.666 626.971 253.383C626.795 253.09 626.561 252.866 626.268 252.709C625.975 252.543 625.647 252.46 625.286 252.46C624.934 252.46 624.612 252.543 624.319 252.709C624.036 252.866 623.801 253.09 623.616 253.383C623.44 253.666 623.333 254.003 623.293 254.394Z" fill="#383838"/>
<path d="M617.076 248.152H619.039V256.386C619.039 256.738 619.098 256.977 619.215 257.104C619.332 257.221 619.493 257.28 619.698 257.28C619.855 257.28 620.016 257.26 620.182 257.221C620.348 257.182 620.494 257.133 620.621 257.075L620.885 258.569C620.621 258.696 620.314 258.794 619.962 258.862C619.61 258.931 619.293 258.965 619.01 258.965C618.394 258.965 617.916 258.804 617.574 258.481C617.242 258.149 617.076 257.68 617.076 257.075V248.152Z" fill="#383838"/>
<path d="M607.179 255.009C607.179 254.267 607.325 253.598 607.618 253.002C607.911 252.396 608.316 251.918 608.834 251.566C609.352 251.214 609.943 251.039 610.607 251.039C611.173 251.039 611.681 251.18 612.131 251.463C612.59 251.737 612.946 252.089 613.2 252.518V248.152H615.163V256.65C615.163 256.855 615.198 257.002 615.266 257.089C615.334 257.177 615.452 257.231 615.618 257.251V258.848C615.276 258.916 614.997 258.95 614.782 258.95C614.431 258.95 614.138 258.862 613.903 258.686C613.679 258.511 613.552 258.281 613.522 257.998L613.493 257.514C613.21 257.993 612.824 258.359 612.336 258.613C611.857 258.867 611.354 258.994 610.827 258.994C610.299 258.994 609.811 258.892 609.362 258.686C608.922 258.481 608.536 258.198 608.204 257.837C607.882 257.475 607.628 257.055 607.442 256.577C607.266 256.088 607.179 255.566 607.179 255.009ZM613.2 256.035V254.203C613.102 253.92 612.946 253.666 612.731 253.441C612.516 253.217 612.277 253.041 612.013 252.914C611.75 252.777 611.486 252.709 611.222 252.709C610.919 252.709 610.646 252.772 610.402 252.899C610.158 253.026 609.943 253.197 609.757 253.412C609.581 253.627 609.445 253.876 609.347 254.159C609.259 254.443 609.215 254.74 609.215 255.053C609.215 255.366 609.264 255.663 609.362 255.947C609.469 256.22 609.62 256.459 609.816 256.665C610.011 256.87 610.236 257.031 610.49 257.148C610.753 257.265 611.037 257.324 611.339 257.324C611.525 257.324 611.711 257.295 611.896 257.236C612.092 257.168 612.272 257.08 612.438 256.972C612.614 256.855 612.766 256.718 612.892 256.562C613.029 256.396 613.132 256.22 613.2 256.035Z" fill="#383838"/>
<path d="M597.735 255.009C597.735 254.267 597.882 253.598 598.175 253.002C598.468 252.396 598.873 251.918 599.391 251.566C599.909 251.214 600.5 251.039 601.164 251.039C601.73 251.039 602.238 251.18 602.688 251.463C603.147 251.737 603.503 252.089 603.757 252.518V248.152H605.72V256.65C605.72 256.855 605.754 257.002 605.823 257.089C605.891 257.177 606.008 257.231 606.174 257.251V258.848C605.833 258.916 605.554 258.95 605.339 258.95C604.988 258.95 604.695 258.862 604.46 258.686C604.236 258.511 604.109 258.281 604.079 257.998L604.05 257.514C603.767 257.993 603.381 258.359 602.893 258.613C602.414 258.867 601.911 258.994 601.384 258.994C600.856 258.994 600.368 258.892 599.918 258.686C599.479 258.481 599.093 258.198 598.761 257.837C598.439 257.475 598.185 257.055 597.999 256.577C597.823 256.088 597.735 255.566 597.735 255.009ZM603.757 256.035V254.203C603.659 253.92 603.503 253.666 603.288 253.441C603.073 253.217 602.834 253.041 602.57 252.914C602.307 252.777 602.043 252.709 601.779 252.709C601.476 252.709 601.203 252.772 600.959 252.899C600.715 253.026 600.5 253.197 600.314 253.412C600.138 253.627 600.001 253.876 599.904 254.159C599.816 254.443 599.772 254.74 599.772 255.053C599.772 255.366 599.821 255.663 599.918 255.947C600.026 256.22 600.177 256.459 600.373 256.665C600.568 256.87 600.793 257.031 601.047 257.148C601.31 257.265 601.594 257.324 601.896 257.324C602.082 257.324 602.268 257.295 602.453 257.236C602.648 257.168 602.829 257.08 602.995 256.972C603.171 256.855 603.322 256.718 603.449 256.562C603.586 256.396 603.689 256.22 603.757 256.035Z" fill="#383838"/>
<path d="M594.47 258.848V251.17H596.433V258.848H594.47ZM594.47 250.101V248.152H596.433V250.101H594.47Z" fill="#383838"/>
<path d="M590.467 258.848V252.02L587.8 257.104H586.672L584.006 252.02V258.848H581.984V248.445H584.152L587.229 254.364L590.335 248.445H592.489V258.848H590.467Z" fill="#383838"/>
<path d="M575.333 312.714C575.333 314.736 573.693 316.376 571.671 316.376C569.648 316.376 568.008 314.736 568.008 312.714C568.008 310.691 569.648 309.051 571.671 309.051C573.693 309.051 575.333 310.691 575.333 312.714Z" fill="white"/>
<path d="M562.963 327.967C562.367 327.967 561.835 328.084 561.366 328.319C560.897 328.543 560.56 328.871 560.355 329.3V333.945H558.392V326.268H560.194V327.909C560.468 327.381 560.814 326.966 561.234 326.663C561.654 326.36 562.099 326.194 562.568 326.165C562.675 326.165 562.758 326.165 562.817 326.165C562.875 326.165 562.924 326.17 562.963 326.18V327.967Z" fill="white"/>
<path d="M549.452 331.674C549.452 331.176 549.588 330.741 549.862 330.37C550.145 329.989 550.536 329.696 551.034 329.491C551.532 329.286 552.103 329.183 552.748 329.183C553.07 329.183 553.398 329.208 553.73 329.256C554.062 329.305 554.35 329.383 554.594 329.491V329.081C554.594 328.592 554.448 328.216 554.155 327.952C553.871 327.689 553.447 327.557 552.88 327.557C552.46 327.557 552.06 327.63 551.679 327.777C551.298 327.923 550.897 328.138 550.477 328.421L549.847 327.132C550.355 326.8 550.873 326.551 551.4 326.385C551.937 326.219 552.499 326.136 553.085 326.136C554.179 326.136 555.029 326.409 555.634 326.956C556.25 327.503 556.557 328.285 556.557 329.3V331.747C556.557 331.952 556.592 332.099 556.66 332.187C556.738 332.275 556.86 332.328 557.026 332.348V333.945C556.85 333.974 556.689 333.998 556.543 334.018C556.406 334.038 556.289 334.047 556.191 334.047C555.8 334.047 555.503 333.959 555.297 333.784C555.102 333.608 554.98 333.393 554.931 333.139L554.887 332.743C554.555 333.173 554.14 333.505 553.642 333.74C553.144 333.974 552.636 334.091 552.118 334.091C551.61 334.091 551.151 333.989 550.741 333.784C550.34 333.569 550.023 333.281 549.789 332.919C549.564 332.548 549.452 332.133 549.452 331.674ZM554.228 332.069C554.335 331.952 554.423 331.835 554.492 331.718C554.56 331.601 554.594 331.493 554.594 331.395V330.619C554.36 330.521 554.106 330.448 553.832 330.399C553.559 330.341 553.3 330.311 553.056 330.311C552.548 330.311 552.128 330.424 551.796 330.648C551.473 330.863 551.312 331.151 551.312 331.513C551.312 331.708 551.366 331.894 551.473 332.069C551.581 332.245 551.737 332.387 551.942 332.494C552.147 332.602 552.392 332.655 552.675 332.655C552.968 332.655 553.256 332.602 553.539 332.494C553.823 332.377 554.052 332.235 554.228 332.069Z" fill="white"/>
<path d="M544.769 334.091C544.153 334.091 543.597 333.989 543.098 333.784C542.6 333.569 542.175 333.281 541.824 332.919C541.472 332.548 541.199 332.128 541.003 331.659C540.818 331.181 540.725 330.678 540.725 330.15C540.725 329.418 540.886 328.749 541.208 328.143C541.541 327.537 542.009 327.054 542.615 326.692C543.23 326.321 543.953 326.136 544.783 326.136C545.623 326.136 546.341 326.321 546.937 326.692C547.533 327.054 547.987 327.537 548.3 328.143C548.622 328.739 548.783 329.383 548.783 330.077C548.783 330.194 548.778 330.316 548.768 330.443C548.759 330.56 548.749 330.658 548.739 330.736H542.805C542.844 331.127 542.957 331.469 543.142 331.762C543.338 332.055 543.582 332.279 543.875 332.436C544.178 332.582 544.5 332.655 544.842 332.655C545.233 332.655 545.599 332.563 545.941 332.377C546.292 332.182 546.532 331.928 546.659 331.615L548.344 332.084C548.158 332.475 547.889 332.821 547.538 333.124C547.196 333.427 546.79 333.666 546.322 333.842C545.853 334.008 545.335 334.091 544.769 334.091ZM542.761 329.491H546.776C546.737 329.1 546.624 328.763 546.439 328.48C546.263 328.187 546.029 327.962 545.736 327.806C545.443 327.64 545.115 327.557 544.754 327.557C544.402 327.557 544.08 327.64 543.787 327.806C543.504 327.962 543.269 328.187 543.084 328.48C542.908 328.763 542.801 329.1 542.761 329.491Z" fill="white"/>
<path d="M536.289 334.092C535.703 334.092 535.18 333.96 534.721 333.696C534.262 333.432 533.901 333.071 533.637 332.612V333.945H531.923V323.25H533.886V327.616C534.16 327.157 534.516 326.796 534.956 326.532C535.405 326.268 535.927 326.136 536.523 326.136C537.021 326.136 537.476 326.244 537.886 326.459C538.296 326.664 538.648 326.952 538.941 327.323C539.243 327.694 539.473 328.119 539.629 328.598C539.795 329.076 539.878 329.589 539.878 330.136C539.878 330.683 539.786 331.196 539.6 331.674C539.424 332.153 539.175 332.578 538.853 332.949C538.53 333.31 538.15 333.594 537.71 333.799C537.28 333.994 536.807 334.092 536.289 334.092ZM535.747 332.422C536.059 332.422 536.343 332.363 536.597 332.246C536.86 332.119 537.085 331.953 537.27 331.748C537.466 331.542 537.612 331.303 537.71 331.03C537.817 330.746 537.871 330.453 537.871 330.151C537.871 329.731 537.783 329.345 537.607 328.993C537.441 328.632 537.207 328.344 536.904 328.129C536.611 327.914 536.264 327.806 535.864 327.806C535.581 327.806 535.307 327.875 535.044 328.012C534.79 328.139 534.56 328.314 534.355 328.539C534.16 328.764 534.003 329.018 533.886 329.301V331.132C533.945 331.328 534.037 331.503 534.164 331.66C534.301 331.816 534.457 331.953 534.633 332.07C534.809 332.177 534.99 332.265 535.175 332.334C535.371 332.392 535.561 332.422 535.747 332.422Z" fill="white"/>
<path d="M558.847 317.091C558.232 317.091 557.675 316.989 557.177 316.784C556.679 316.569 556.254 316.281 555.903 315.919C555.551 315.548 555.277 315.128 555.082 314.659C554.896 314.181 554.804 313.678 554.804 313.15C554.804 312.418 554.965 311.749 555.287 311.143C555.619 310.537 556.088 310.054 556.694 309.692C557.309 309.321 558.032 309.136 558.862 309.136C559.702 309.136 560.42 309.321 561.016 309.692C561.612 310.054 562.066 310.537 562.378 311.143C562.701 311.739 562.862 312.383 562.862 313.077C562.862 313.194 562.857 313.316 562.847 313.443C562.837 313.56 562.828 313.658 562.818 313.736H556.884C556.923 314.127 557.036 314.469 557.221 314.762C557.416 315.055 557.661 315.279 557.954 315.436C558.256 315.582 558.579 315.655 558.921 315.655C559.311 315.655 559.678 315.563 560.019 315.377C560.371 315.182 560.61 314.928 560.737 314.615L562.422 315.084C562.237 315.475 561.968 315.821 561.616 316.124C561.275 316.427 560.869 316.666 560.4 316.842C559.932 317.008 559.414 317.091 558.847 317.091ZM556.84 312.491H560.855C560.816 312.1 560.703 311.763 560.518 311.48C560.342 311.187 560.107 310.962 559.814 310.806C559.521 310.64 559.194 310.557 558.833 310.557C558.481 310.557 558.159 310.64 557.866 310.806C557.583 310.962 557.348 311.187 557.163 311.48C556.987 311.763 556.879 312.1 556.84 312.491Z" fill="white"/>
<path d="M554.365 316.55C554.199 316.618 553.999 316.696 553.764 316.784C553.53 316.872 553.276 316.94 553.002 316.989C552.739 317.048 552.47 317.077 552.197 317.077C551.835 317.077 551.503 317.014 551.2 316.887C550.898 316.76 550.653 316.559 550.468 316.286C550.292 316.003 550.204 315.636 550.204 315.187V310.777H549.193V309.268H550.204V306.777H552.167V309.268H553.779V310.777H552.167V314.528C552.177 314.791 552.25 314.982 552.387 315.099C552.524 315.216 552.695 315.275 552.9 315.275C553.105 315.275 553.305 315.241 553.501 315.172C553.696 315.104 553.852 315.045 553.969 314.997L554.365 316.55Z" fill="white"/>
<path d="M540.896 314.674C540.896 314.176 541.032 313.741 541.306 313.37C541.589 312.989 541.98 312.696 542.478 312.491C542.976 312.286 543.547 312.183 544.192 312.183C544.514 312.183 544.842 312.208 545.174 312.256C545.506 312.305 545.794 312.383 546.038 312.491V312.081C546.038 311.592 545.892 311.216 545.599 310.952C545.315 310.689 544.89 310.557 544.324 310.557C543.904 310.557 543.504 310.63 543.123 310.777C542.742 310.923 542.341 311.138 541.921 311.421L541.291 310.132C541.799 309.8 542.317 309.551 542.844 309.385C543.381 309.219 543.943 309.136 544.529 309.136C545.623 309.136 546.473 309.409 547.078 309.956C547.694 310.503 548.001 311.285 548.001 312.3V314.747C548.001 314.952 548.036 315.099 548.104 315.187C548.182 315.275 548.304 315.328 548.47 315.348V316.945C548.294 316.974 548.133 316.998 547.987 317.018C547.85 317.038 547.733 317.047 547.635 317.047C547.244 317.047 546.946 316.959 546.741 316.784C546.546 316.608 546.424 316.393 546.375 316.139L546.331 315.743C545.999 316.173 545.584 316.505 545.086 316.74C544.588 316.974 544.08 317.091 543.562 317.091C543.054 317.091 542.595 316.989 542.185 316.784C541.784 316.569 541.467 316.281 541.233 315.919C541.008 315.548 540.896 315.133 540.896 314.674ZM545.672 315.069C545.779 314.952 545.867 314.835 545.936 314.718C546.004 314.601 546.038 314.493 546.038 314.395V313.619C545.804 313.521 545.55 313.448 545.276 313.399C545.003 313.341 544.744 313.311 544.5 313.311C543.992 313.311 543.572 313.424 543.24 313.648C542.917 313.863 542.756 314.151 542.756 314.513C542.756 314.708 542.81 314.894 542.917 315.069C543.025 315.245 543.181 315.387 543.386 315.494C543.591 315.602 543.836 315.655 544.119 315.655C544.412 315.655 544.7 315.602 544.983 315.494C545.267 315.377 545.496 315.235 545.672 315.069Z" fill="white"/>
<path d="M533.058 316.945V306.543H535.079V315.172H540.383V316.945H533.058Z" fill="white"/>
<path d="M57.3802 320.542C57.3802 322.565 55.7403 324.204 53.7174 324.204C51.6946 324.204 50.0547 322.565 50.0547 320.542C50.0547 318.519 51.6946 316.879 53.7174 316.879C55.7403 316.879 57.3802 318.519 57.3802 320.542Z" fill="#0B0D54"/>
<path d="M78.4097 340.648H76.4465V336.34C76.4465 335.735 76.3391 335.29 76.1242 335.007C75.9191 334.714 75.6309 334.568 75.2598 334.568C74.8789 334.568 74.5126 334.719 74.161 335.022C73.8191 335.315 73.5749 335.701 73.4284 336.179V340.648H71.4652V336.34C71.4652 335.725 71.3577 335.276 71.1428 334.993C70.9377 334.709 70.6496 334.568 70.2784 334.568C69.8975 334.568 69.5312 334.714 69.1796 335.007C68.8378 335.3 68.5936 335.686 68.4471 336.165V340.648H66.4838V332.971H68.2566V334.392C68.5496 333.894 68.9403 333.513 69.4287 333.249C69.917 332.976 70.4787 332.839 71.1135 332.839C71.7484 332.839 72.2417 332.995 72.5933 333.308C72.9547 333.62 73.1842 334.006 73.2819 334.465C73.5944 333.938 73.99 333.537 74.4686 333.264C74.957 332.98 75.504 332.839 76.1095 332.839C76.5881 332.839 76.9739 332.927 77.267 333.103C77.5698 333.269 77.8042 333.498 77.9702 333.791C78.1363 334.074 78.2486 334.397 78.3072 334.758C78.3756 335.12 78.4097 335.486 78.4097 335.857V340.648Z" fill="#383838"/>
<path d="M61.1443 340.794C60.5192 340.794 59.9576 340.692 59.4595 340.487C58.9613 340.272 58.5364 339.979 58.1848 339.608C57.843 339.236 57.5792 338.812 57.3937 338.333C57.2081 337.854 57.1153 337.351 57.1153 336.824C57.1153 336.287 57.2081 335.779 57.3937 335.3C57.5792 334.822 57.843 334.397 58.1848 334.026C58.5364 333.654 58.9613 333.366 59.4595 333.161C59.9576 332.946 60.5192 332.839 61.1443 332.839C61.7694 332.839 62.3262 332.946 62.8145 333.161C63.3127 333.366 63.7376 333.654 64.0892 334.026C64.4408 334.397 64.7045 334.822 64.8803 335.3C65.0659 335.779 65.1587 336.287 65.1587 336.824C65.1587 337.351 65.0659 337.854 64.8803 338.333C64.7045 338.812 64.4408 339.236 64.0892 339.608C63.7473 339.979 63.3273 340.272 62.8292 340.487C62.3311 340.692 61.7694 340.794 61.1443 340.794ZM59.1371 336.824C59.1371 337.273 59.225 337.674 59.4009 338.025C59.5767 338.367 59.816 338.636 60.1188 338.831C60.4215 339.026 60.7634 339.124 61.1443 339.124C61.5155 339.124 61.8525 339.026 62.1552 338.831C62.458 338.626 62.6973 338.353 62.8731 338.011C63.0587 337.659 63.1515 337.259 63.1515 336.809C63.1515 336.37 63.0587 335.974 62.8731 335.623C62.6973 335.271 62.458 334.997 62.1552 334.802C61.8525 334.607 61.5155 334.509 61.1443 334.509C60.7634 334.509 60.4215 334.612 60.1188 334.817C59.816 335.012 59.5767 335.286 59.4009 335.637C59.225 335.979 59.1371 336.375 59.1371 336.824Z" fill="#383838"/>
<path d="M56.6764 340.253C56.5104 340.321 56.3102 340.399 56.0758 340.487C55.8413 340.575 55.5874 340.643 55.3139 340.692C55.0502 340.751 54.7816 340.78 54.5081 340.78C54.1467 340.78 53.8146 340.717 53.5118 340.59C53.209 340.463 52.9649 340.262 52.7793 339.989C52.6035 339.706 52.5156 339.339 52.5156 338.89V334.48H51.5046V332.971H52.5156V330.48H54.4788V332.971H56.0904V334.48H54.4788V338.231C54.4886 338.495 54.5618 338.685 54.6986 338.802C54.8353 338.919 55.0062 338.978 55.2113 338.978C55.4165 338.978 55.6167 338.944 55.812 338.875C56.0074 338.807 56.1637 338.749 56.2809 338.7L56.6764 340.253Z" fill="#383838"/>
<path d="M51.0822 340.253C50.9162 340.321 50.7159 340.399 50.4815 340.487C50.2471 340.575 49.9931 340.643 49.7197 340.692C49.4559 340.751 49.1873 340.78 48.9139 340.78C48.5525 340.78 48.2204 340.717 47.9176 340.59C47.6148 340.463 47.3706 340.262 47.185 339.989C47.0092 339.706 46.9213 339.339 46.9213 338.89V334.48H45.9104V332.971H46.9213V330.48H48.8846V332.971H50.4962V334.48H48.8846V338.231C48.8943 338.495 48.9676 338.685 49.1043 338.802C49.2411 338.919 49.412 338.978 49.6171 338.978C49.8222 338.978 50.0224 338.944 50.2178 338.875C50.4131 338.807 50.5694 338.749 50.6866 338.7L51.0822 340.253Z" fill="#383838"/>
<path d="M41.2568 340.794C40.6316 340.794 40.07 340.692 39.5719 340.487C39.0737 340.272 38.6489 339.979 38.2972 339.608C37.9554 339.236 37.6917 338.812 37.5061 338.333C37.3205 337.854 37.2277 337.351 37.2277 336.824C37.2277 336.287 37.3205 335.779 37.5061 335.3C37.6917 334.822 37.9554 334.397 38.2972 334.026C38.6489 333.654 39.0737 333.366 39.5719 333.161C40.07 332.946 40.6316 332.839 41.2568 332.839C41.8819 332.839 42.4386 332.946 42.927 333.161C43.4251 333.366 43.85 333.654 44.2016 334.026C44.5532 334.397 44.8169 334.822 44.9928 335.3C45.1783 335.779 45.2711 336.287 45.2711 336.824C45.2711 337.351 45.1783 337.854 44.9928 338.333C44.8169 338.812 44.5532 339.236 44.2016 339.608C43.8597 339.979 43.4397 340.272 42.9416 340.487C42.4435 340.692 41.8819 340.794 41.2568 340.794ZM39.2496 336.824C39.2496 337.273 39.3375 337.674 39.5133 338.025C39.6891 338.367 39.9284 338.636 40.2312 338.831C40.534 339.026 40.8758 339.124 41.2568 339.124C41.6279 339.124 41.9649 339.026 42.2677 338.831C42.5705 338.626 42.8098 338.353 42.9856 338.011C43.1711 337.659 43.2639 337.259 43.2639 336.809C43.2639 336.37 43.1711 335.974 42.9856 335.623C42.8098 335.271 42.5705 334.997 42.2677 334.802C41.9649 334.607 41.6279 334.509 41.2568 334.509C40.8758 334.509 40.534 334.612 40.2312 334.817C39.9284 335.012 39.6891 335.286 39.5133 335.637C39.3375 335.979 39.2496 336.375 39.2496 336.824Z" fill="#383838"/>
<path d="M36.3239 337.967C36.3239 338.553 36.1725 339.046 35.8697 339.447C35.567 339.838 35.1567 340.136 34.6391 340.341C34.1312 340.546 33.5744 340.648 32.9688 340.648H27.9435V330.246H33.5109C33.9993 330.246 34.4193 330.378 34.7709 330.642C35.1323 330.896 35.4058 331.228 35.5914 331.638C35.7867 332.038 35.8844 332.458 35.8844 332.898C35.8844 333.396 35.7574 333.87 35.5035 334.319C35.2495 334.768 34.8784 335.1 34.39 335.315C34.9858 335.491 35.4546 335.809 35.7965 336.268C36.1481 336.727 36.3239 337.293 36.3239 337.967ZM34.2874 337.586C34.2874 337.323 34.2337 337.088 34.1263 336.883C34.0188 336.668 33.8723 336.502 33.6867 336.385C33.5109 336.258 33.3058 336.194 33.0714 336.194H29.9654V338.934H32.9688C33.213 338.934 33.4328 338.876 33.6281 338.758C33.8332 338.631 33.9944 338.465 34.1116 338.26C34.2288 338.055 34.2874 337.83 34.2874 337.586ZM29.9654 331.975V334.597H32.6612C32.8858 334.597 33.0909 334.544 33.2765 334.436C33.4621 334.329 33.6086 334.177 33.716 333.982C33.8332 333.787 33.8919 333.552 33.8919 333.279C33.8919 333.015 33.8381 332.786 33.7307 332.59C33.633 332.395 33.4963 332.244 33.3205 332.136C33.1544 332.029 32.964 331.975 32.7491 331.975H29.9654Z" fill="#383838"/>
<path fill-rule="evenodd" clip-rule="evenodd" d="M5.00417 416H2V415H5.00417V416ZM17.0208 416H11.0125V415H17.0208V416ZM29.0375 416H23.0292V415H29.0375V416ZM41.0542 416H35.0458V415H41.0542V416ZM53.0708 416H47.0625V415H53.0708V416ZM65.0875 416H59.0792V415H65.0875V416ZM77.1042 416H71.0958V415H77.1042V416ZM89.1208 416H83.1125V415H89.1208V416ZM101.137 416H95.1292V415H101.137V416ZM113.154 416H107.146V415H113.154V416ZM125.171 416H119.162V415H125.171V416ZM137.187 416H131.179V415H137.187V416ZM149.204 416H143.196V415H149.204V416ZM161.221 416H155.212V415H161.221V416ZM173.237 416H167.229V415H173.237V416ZM185.254 416H179.246V415H185.254V416ZM197.271 416H191.262V415H197.271V416ZM209.287 416H203.279V415H209.287V416ZM221.304 416H215.296V415H221.304V416ZM233.321 416H227.312V415H233.321V416ZM245.337 416H239.329V415H245.337V416ZM257.354 416H251.346V415H257.354V416ZM269.371 416H263.362V415H269.371V416ZM281.387 416H275.379V415H281.387V416ZM293.404 416H287.396V415H293.404V416ZM305.421 416H299.412V415H305.421V416ZM317.437 416H311.429V415H317.437V416ZM329.454 416H323.446V415H329.454V416ZM341.471 416H335.462V415H341.471V416ZM353.487 416H347.479V415H353.487V416ZM365.504 416H359.496V415H365.504V416ZM377.521 416H371.512V415H377.521V416ZM389.537 416H383.529V415H389.537V416ZM401.554 416H395.546V415H401.554V416ZM413.571 416H407.562V415H413.571V416ZM425.587 416H419.579V415H425.587V416ZM437.604 416H431.596V415H437.604V416ZM449.621 416H443.612V415H449.621V416ZM461.637 416H455.629V415H461.637V416ZM473.654 416H467.646V415H473.654V416ZM485.671 416H479.662V415H485.671V416ZM497.687 416H491.679V415H497.687V416ZM509.704 416H503.696V415H509.704V416ZM521.721 416H515.712V415H521.721V416ZM533.737 416H527.729V415H533.737V416ZM545.754 416H539.746V415H545.754V416ZM557.771 416H551.763V415H557.771V416ZM569.788 416H563.779V415H569.788V416ZM581.804 416H575.796V415H581.804V416ZM593.821 416H587.813V415H593.821V416ZM605.838 416H599.829V415H605.838V416ZM617.854 416H611.846V415H617.854V416ZM629.871 416H623.863V415H629.871V416ZM641.888 416H635.88V415H641.888V416ZM653.905 416H647.896V415H653.905V416ZM665.921 416H659.913V415H665.921V416ZM677.938 416H671.93V415H677.938V416ZM689.955 416H683.946V415H689.955V416ZM701.972 416H695.963V415H701.972V416ZM713.988 416H707.98V415H713.988V416ZM723 416H719.997V415H723V416Z" fill="#484848"/>
<defs>
<linearGradient id="paint0_linear_2254_1079" x1="362.002" y1="61.8148" x2="362.002" y2="418.323" gradientUnits="userSpaceOnUse">
<stop stop-color="#090B53"/>
<stop offset="1" stop-color="#090B53" stop-opacity="0"/>
</linearGradient>
<linearGradient id="paint1_linear_2254_1079" x1="362.002" y1="28.851" x2="362.002" y2="414.661" gradientUnits="userSpaceOnUse">
<stop stop-color="#EB2188"/>
<stop offset="1" stop-color="white"/>
</linearGradient>
</defs>
</svg>
