<svg width="724" height="391" viewBox="0 0 724 391" fill="none" xmlns="http://www.w3.org/2000/svg">
<path d="M164.235 224.155C101.278 300.196 28.5131 287.75 0 272.022V390.323L724.004 386.22V365.705C598.09 378.014 520.079 174.92 479.704 104.487C447.404 48.1399 390.971 34.5092 366.792 34.7372C313.165 34.737 276.658 72.6663 259.355 93.5456C250.288 104.487 227.192 148.114 164.235 224.155Z" fill="url(#paint0_linear_2198_5177)"/>
<path d="M61.3902 171.86C43.0585 141.48 16.4597 96.2567 0 79.8019V390.324L724.004 386.661V337.964C683.967 320.353 636.708 164.345 595.885 93.8107C579.946 66.271 543.837 5.35514 487.785 1.08579C431.733 -3.18356 385.563 32.5948 363.003 93.8107C350.547 127.61 308.953 209.217 242.224 265.252C158.814 335.296 95.2316 227.942 61.3902 171.86Z" fill="url(#paint1_linear_2198_5177)" fill-opacity="0.7"/>
<defs>
<linearGradient id="paint0_linear_2198_5177" x1="362.002" y1="33.8148" x2="362.002" y2="390.323" gradientUnits="userSpaceOnUse">
<stop stop-color="#090B53"/>
<stop offset="0.881826" stop-color="#EEDAE7"/>
</linearGradient>
<linearGradient id="paint1_linear_2198_5177" x1="362.002" y1="0.850985" x2="362.002" y2="386.661" gradientUnits="userSpaceOnUse">
<stop stop-color="#EB2188"/>
<stop offset="0.795" stop-color="#EEDAE7"/>
</linearGradient>
</defs>
</svg>
