<svg width="1144" height="497" viewBox="0 0 1144 497" fill="none" xmlns="http://www.w3.org/2000/svg">
<path d="M3 251.006C91.5362 83.475 330.076 -151.068 575.947 251.006C678.509 418.725 899.64 643.593 1141 251.006" stroke="black" stroke-width="5"/>
<path d="M842.484 489.706C842.484 490.39 842.304 490.978 841.944 491.47C841.596 491.962 841.122 492.34 840.522 492.604C839.922 492.868 839.262 493 838.542 493H832.44V480.22H839.028C839.628 480.22 840.144 480.382 840.576 480.706C841.02 481.018 841.356 481.426 841.584 481.93C841.824 482.422 841.944 482.938 841.944 483.478C841.944 484.102 841.782 484.69 841.458 485.242C841.146 485.782 840.696 486.184 840.108 486.448C840.84 486.664 841.416 487.06 841.836 487.636C842.268 488.2 842.484 488.89 842.484 489.706ZM840.414 489.328C840.414 488.968 840.336 488.644 840.18 488.356C840.036 488.056 839.832 487.816 839.568 487.636C839.316 487.444 839.016 487.348 838.668 487.348H834.456V491.254H838.542C838.902 491.254 839.22 491.17 839.496 491.002C839.784 490.822 840.006 490.588 840.162 490.3C840.33 490 840.414 489.676 840.414 489.328ZM834.456 481.966V485.728H838.164C838.5 485.728 838.8 485.65 839.064 485.494C839.328 485.326 839.538 485.104 839.694 484.828C839.85 484.54 839.928 484.216 839.928 483.856C839.928 483.484 839.856 483.16 839.712 482.884C839.568 482.596 839.37 482.374 839.118 482.218C838.878 482.05 838.596 481.966 838.272 481.966H834.456ZM848.564 493.18C847.82 493.18 847.154 493.054 846.566 492.802C845.978 492.538 845.468 492.178 845.036 491.722C844.616 491.266 844.292 490.75 844.064 490.174C843.836 489.586 843.722 488.962 843.722 488.302C843.722 487.642 843.836 487.018 844.064 486.43C844.292 485.842 844.616 485.326 845.036 484.882C845.468 484.426 845.978 484.072 846.566 483.82C847.166 483.556 847.832 483.424 848.564 483.424C849.296 483.424 849.956 483.556 850.544 483.82C851.144 484.072 851.654 484.426 852.074 484.882C852.506 485.326 852.836 485.842 853.064 486.43C853.292 487.018 853.406 487.642 853.406 488.302C853.406 488.962 853.292 489.586 853.064 490.174C852.836 490.75 852.506 491.266 852.074 491.722C851.654 492.178 851.144 492.538 850.544 492.802C849.956 493.054 849.296 493.18 848.564 493.18ZM845.756 488.32C845.756 488.92 845.882 489.46 846.134 489.94C846.386 490.42 846.722 490.798 847.142 491.074C847.562 491.35 848.036 491.488 848.564 491.488C849.08 491.488 849.548 491.35 849.968 491.074C850.4 490.786 850.742 490.402 850.994 489.922C851.246 489.43 851.372 488.89 851.372 488.302C851.372 487.702 851.246 487.162 850.994 486.682C850.742 486.202 850.4 485.824 849.968 485.548C849.548 485.26 849.08 485.116 848.564 485.116C848.036 485.116 847.562 485.26 847.142 485.548C846.722 485.836 846.386 486.22 846.134 486.7C845.882 487.168 845.756 487.708 845.756 488.32ZM860.26 492.514C860.092 492.598 859.882 492.688 859.63 492.784C859.378 492.88 859.09 492.964 858.766 493.036C858.454 493.108 858.13 493.144 857.794 493.144C857.386 493.144 857.008 493.072 856.66 492.928C856.312 492.784 856.03 492.556 855.814 492.244C855.61 491.92 855.508 491.506 855.508 491.002V485.116H854.266V483.586H855.508V480.49H857.488V483.586H859.54V485.116H857.488V490.372C857.512 490.696 857.614 490.936 857.794 491.092C857.986 491.248 858.22 491.326 858.496 491.326C858.772 491.326 859.036 491.278 859.288 491.182C859.54 491.086 859.726 491.008 859.846 490.948L860.26 492.514ZM866.852 492.514C866.684 492.598 866.474 492.688 866.222 492.784C865.97 492.88 865.682 492.964 865.358 493.036C865.046 493.108 864.722 493.144 864.386 493.144C863.978 493.144 863.6 493.072 863.252 492.928C862.904 492.784 862.622 492.556 862.406 492.244C862.202 491.92 862.1 491.506 862.1 491.002V485.116H860.858V483.586H862.1V480.49H864.08V483.586H866.132V485.116H864.08V490.372C864.104 490.696 864.206 490.936 864.386 491.092C864.578 491.248 864.812 491.326 865.088 491.326C865.364 491.326 865.628 491.278 865.88 491.182C866.132 491.086 866.318 491.008 866.438 490.948L866.852 492.514ZM872.33 493.18C871.586 493.18 870.92 493.054 870.332 492.802C869.744 492.538 869.234 492.178 868.802 491.722C868.382 491.266 868.058 490.75 867.83 490.174C867.602 489.586 867.488 488.962 867.488 488.302C867.488 487.642 867.602 487.018 867.83 486.43C868.058 485.842 868.382 485.326 868.802 484.882C869.234 484.426 869.744 484.072 870.332 483.82C870.932 483.556 871.598 483.424 872.33 483.424C873.062 483.424 873.722 483.556 874.31 483.82C874.91 484.072 875.42 484.426 875.84 484.882C876.272 485.326 876.602 485.842 876.83 486.43C877.058 487.018 877.172 487.642 877.172 488.302C877.172 488.962 877.058 489.586 876.83 490.174C876.602 490.75 876.272 491.266 875.84 491.722C875.42 492.178 874.91 492.538 874.31 492.802C873.722 493.054 873.062 493.18 872.33 493.18ZM869.522 488.32C869.522 488.92 869.648 489.46 869.9 489.94C870.152 490.42 870.488 490.798 870.908 491.074C871.328 491.35 871.802 491.488 872.33 491.488C872.846 491.488 873.314 491.35 873.734 491.074C874.166 490.786 874.508 490.402 874.76 489.922C875.012 489.43 875.138 488.89 875.138 488.302C875.138 487.702 875.012 487.162 874.76 486.682C874.508 486.202 874.166 485.824 873.734 485.548C873.314 485.26 872.846 485.116 872.33 485.116C871.802 485.116 871.328 485.26 870.908 485.548C870.488 485.836 870.152 486.22 869.9 486.7C869.648 487.168 869.522 487.708 869.522 488.32ZM893.328 493H891.348V487.726C891.348 486.85 891.204 486.208 890.916 485.8C890.628 485.392 890.208 485.188 889.656 485.188C889.104 485.188 888.588 485.398 888.108 485.818C887.64 486.226 887.31 486.76 887.118 487.42V493H885.138V487.726C885.138 486.85 884.994 486.208 884.706 485.8C884.418 485.392 884.004 485.188 883.464 485.188C882.912 485.188 882.396 485.392 881.916 485.8C881.448 486.208 881.112 486.742 880.908 487.402V493H878.928V483.586H880.728V485.476C881.1 484.816 881.586 484.312 882.186 483.964C882.798 483.604 883.494 483.424 884.274 483.424C885.054 483.424 885.666 483.628 886.11 484.036C886.566 484.444 886.848 484.954 886.956 485.566C887.364 484.87 887.862 484.342 888.45 483.982C889.05 483.61 889.734 483.424 890.502 483.424C891.054 483.424 891.516 483.526 891.888 483.73C892.26 483.934 892.548 484.216 892.752 484.576C892.956 484.924 893.1 485.332 893.184 485.8C893.28 486.256 893.328 486.742 893.328 487.258V493Z" fill="black"/>
<circle cx="863" cy="469" r="6" fill="black"/>
<circle cx="290" cy="29" r="6" fill="black"/>
<path d="M284.818 6.002H280.57V17H278.536V6.002H274.27V4.22H284.818V6.002ZM288.611 17.18C287.867 17.18 287.201 17.054 286.613 16.802C286.025 16.538 285.515 16.178 285.083 15.722C284.663 15.266 284.339 14.75 284.111 14.174C283.883 13.586 283.769 12.962 283.769 12.302C283.769 11.642 283.883 11.018 284.111 10.43C284.339 9.842 284.663 9.326 285.083 8.882C285.515 8.426 286.025 8.072 286.613 7.82C287.213 7.556 287.879 7.424 288.611 7.424C289.343 7.424 290.003 7.556 290.591 7.82C291.191 8.072 291.701 8.426 292.121 8.882C292.553 9.326 292.883 9.842 293.111 10.43C293.339 11.018 293.453 11.642 293.453 12.302C293.453 12.962 293.339 13.586 293.111 14.174C292.883 14.75 292.553 15.266 292.121 15.722C291.701 16.178 291.191 16.538 290.591 16.802C290.003 17.054 289.343 17.18 288.611 17.18ZM285.803 12.32C285.803 12.92 285.929 13.46 286.181 13.94C286.433 14.42 286.769 14.798 287.189 15.074C287.609 15.35 288.083 15.488 288.611 15.488C289.127 15.488 289.595 15.35 290.015 15.074C290.447 14.786 290.789 14.402 291.041 13.922C291.293 13.43 291.419 12.89 291.419 12.302C291.419 11.702 291.293 11.162 291.041 10.682C290.789 10.202 290.447 9.824 290.015 9.548C289.595 9.26 289.127 9.116 288.611 9.116C288.083 9.116 287.609 9.26 287.189 9.548C286.769 9.836 286.433 10.22 286.181 10.7C285.929 11.168 285.803 11.708 285.803 12.32ZM300.555 17.18C299.799 17.18 299.133 17 298.557 16.64C297.981 16.28 297.525 15.812 297.189 15.236V20.834H295.209V7.586H296.955V9.278C297.315 8.714 297.783 8.264 298.359 7.928C298.935 7.592 299.577 7.424 300.285 7.424C300.933 7.424 301.527 7.556 302.067 7.82C302.607 8.072 303.075 8.426 303.471 8.882C303.867 9.338 304.173 9.86 304.389 10.448C304.617 11.024 304.731 11.636 304.731 12.284C304.731 13.184 304.551 14.006 304.191 14.75C303.843 15.494 303.351 16.088 302.715 16.532C302.091 16.964 301.371 17.18 300.555 17.18ZM299.907 15.488C300.327 15.488 300.705 15.398 301.041 15.218C301.389 15.038 301.683 14.798 301.923 14.498C302.175 14.198 302.367 13.856 302.499 13.472C302.631 13.088 302.697 12.692 302.697 12.284C302.697 11.852 302.625 11.444 302.481 11.06C302.337 10.676 302.127 10.34 301.851 10.052C301.587 9.764 301.275 9.536 300.915 9.368C300.567 9.2 300.183 9.116 299.763 9.116C299.511 9.116 299.247 9.164 298.971 9.26C298.695 9.356 298.437 9.488 298.197 9.656C297.957 9.824 297.747 10.022 297.567 10.25C297.387 10.478 297.261 10.718 297.189 10.97V13.436C297.357 13.82 297.579 14.168 297.855 14.48C298.131 14.78 298.449 15.026 298.809 15.218C299.169 15.398 299.535 15.488 299.907 15.488Z" fill="black"/>
</svg>
