<svg width="1139" height="439" viewBox="0 0 1139 439" fill="none" xmlns="http://www.w3.org/2000/svg">
<circle cx="44" cy="150" r="6" fill="#0E088D"/>
<circle cx="151" cy="44" r="6" fill="#0E088D"/>
<circle cx="404" cy="46" r="6" fill="#0E088D"/>
<circle cx="523" cy="150" r="6" fill="#0E088D"/>
<circle cx="668" cy="329" r="6" fill="#0E088D"/>
<circle cx="1058" cy="327.299" r="6" fill="#0E088D"/>
<circle cx="861" cy="433" r="6" fill="#0E088D"/>
<circle cx="275" cy="6" r="6" fill="#0E088D"/>
<path d="M574.941 216.501L572.507 218.255L572.507 218.255L574.941 216.501ZM1139 216.501L1108.32 232.582L1137.59 251.113L1139 216.501ZM5.65209 217.904C49.7297 134.542 124.62 41.746 221.526 16.0947C317.917 -9.42035 437.683 31.1924 572.507 218.255L577.374 214.747C441.92 26.809 319.906 -16.1533 219.991 10.2944C120.591 36.6059 44.6508 131.311 0.347911 215.099L5.65209 217.904ZM572.507 218.255C601.587 258.604 635.912 302.828 674.733 340.811C713.538 378.777 756.997 410.667 804.383 426.132C851.879 441.634 903.183 440.582 957.374 412.886C1011.46 385.244 1068.23 331.162 1127.05 240.98L1122.03 237.702C1063.52 327.401 1007.45 380.554 954.644 407.544C901.94 434.48 852.294 435.458 806.244 420.428C760.085 405.363 717.402 374.163 678.929 336.522C640.473 298.897 606.384 254.997 577.374 214.747L572.507 218.255Z" fill="#0E088D" fill-opacity="0.85"/>
</svg>
